<svg width="81" height="81" viewBox="0 0 81 81" fill="none" xmlns="http://www.w3.org/2000/svg">
<path d="M78.0802 0H2.00206C1.47108 0 0.961848 0.21093 0.586389 0.586389C0.21093 0.961848 0 1.47108 0 2.00206V46.0473C0 46.5783 0.21093 47.0875 0.586389 47.463C0.961848 47.8384 1.47108 48.0494 2.00206 48.0494H14.922C15.1974 48.8282 15.7069 49.5029 16.3807 49.9808C17.0546 50.4587 17.8598 50.7165 18.6859 50.7188H19.153C20.4877 53.7219 22.2495 59.3677 22.69 78.7476C22.69 79.1016 22.8306 79.4411 23.0809 79.6914C23.3312 79.9417 23.6707 80.0823 24.0247 80.0823C24.3787 80.0823 24.7182 79.9417 24.9685 79.6914C25.2188 79.4411 25.3594 79.1016 25.3594 78.7476C25.3594 77.4129 25.2793 76.0782 25.2393 74.7435H33.3676V78.7476C33.3676 79.1016 33.5082 79.4411 33.7585 79.6914C34.0089 79.9417 34.3483 80.0823 34.7023 80.0823C35.0563 80.0823 35.3958 79.9417 35.6461 79.6914C35.8964 79.4411 36.037 79.1016 36.037 78.7476V74.7435H44.0453V78.7476C44.0453 79.1016 44.1859 79.4411 44.4362 79.6914C44.6865 79.9417 45.026 80.0823 45.38 80.0823C45.734 80.0823 46.0734 79.9417 46.3237 79.6914C46.5741 79.4411 46.7147 79.1016 46.7147 78.7476V74.7435H54.8297C54.8297 76.0782 54.7362 77.3195 54.7096 78.7476C54.7096 79.1016 54.8502 79.4411 55.1005 79.6914C55.3508 79.9417 55.6903 80.0823 56.0443 80.0823C56.3982 80.0823 56.7377 79.9417 56.988 79.6914C57.2383 79.4411 57.379 79.1016 57.379 78.7476C57.8328 58.9673 59.7681 53.1346 60.8892 50.7188H61.3964C62.2225 50.7165 63.0277 50.4587 63.7015 49.9808C64.3754 49.5029 64.8849 48.8282 65.1603 48.0494H78.0802C78.6112 48.0494 79.1204 47.8384 79.4959 47.463C79.8714 47.0875 80.0823 46.5783 80.0823 46.0473V2.00206C80.0823 1.47108 79.8714 0.961848 79.4959 0.586389C79.1204 0.21093 78.6112 0 78.0802 0ZM47.7157 58.727H56.0576C55.8307 60.2753 55.6171 62.0371 55.4303 64.0658H47.035C47.0169 63.6669 47.0528 63.2673 47.1418 62.8779C47.2886 61.4899 47.4888 60.0617 47.7157 58.727ZM44.4857 62.5843C44.4857 63.0648 44.3923 63.572 44.3656 64.0658H35.73C35.73 63.572 35.65 63.0915 35.6099 62.611C35.4898 61.2763 35.3163 60.035 35.1161 58.727H45.0062C44.7927 60.0617 44.6192 61.303 44.4857 62.5843ZM23.9446 58.727H32.3933C32.6202 60.0617 32.807 61.4899 32.9405 62.8513C32.9405 63.2517 33.0073 63.6521 33.0473 64.0658H24.5853C24.3851 62.0237 24.1715 60.2486 23.9446 58.727ZM34.6222 56.0576C34.2719 54.2557 33.8263 52.4736 33.2875 50.7188H46.7147C46.2342 52.4806 45.8071 54.2558 45.46 56.0576H34.6222ZM30.6181 50.7188C31.1253 52.4939 31.5791 54.2824 31.9528 56.0576H23.4908C23.158 54.24 22.6713 52.454 22.036 50.7188H30.6181ZM24.8122 66.7352H33.2208C33.3142 68.6839 33.3543 70.5525 33.381 72.0741H25.1325C25.0391 70.1254 24.9323 68.3502 24.8122 66.7352ZM36.037 72.0741C36.037 70.5658 36.037 68.724 35.8902 66.7352H44.1921C44.1921 68.2702 44.0986 69.7517 44.072 71.073V72.0741H36.037ZM46.7147 72.0741V71.1131C46.7147 69.7784 46.7147 68.2702 46.8348 66.7352H55.2434C55.1233 68.3636 55.0165 70.1387 54.9231 72.0741H46.7147ZM56.5648 56.0576H48.1962C48.5566 54.2558 48.997 52.4806 49.5309 50.7188H58.0597C57.4163 52.4535 56.9207 54.2394 56.5781 56.0576H56.5648ZM61.3964 48.0494H18.6859C18.3319 48.0494 17.9924 47.9088 17.7421 47.6585C17.4918 47.4081 17.3512 47.0687 17.3512 46.7147C17.3512 46.3607 17.4918 46.0212 17.7421 45.7709C17.9924 45.5206 18.3319 45.38 18.6859 45.38H61.3964C61.7504 45.38 62.0899 45.5206 62.3402 45.7709C62.5905 46.0212 62.7311 46.3607 62.7311 46.7147C62.7311 47.0687 62.5905 47.4081 62.3402 47.6585C62.0899 47.9088 61.7504 48.0494 61.3964 48.0494ZM48.9169 42.4036C48.5032 42.3235 48.1028 42.2167 47.7024 42.1099L47.3019 41.9765L46.5011 41.7095L46.034 41.5227L45.38 41.2157L44.9128 40.9888L44.2455 40.6284L43.7917 40.3615L43.151 39.9477L42.7106 39.6674L42.0432 39.1469L41.7095 38.88C41.3892 38.5997 41.0689 38.3194 40.7752 38.0257C40.4816 37.7321 40.188 37.4118 39.9077 37.0914L39.6541 36.7711C39.4806 36.5442 39.2937 36.3307 39.1335 36.0904L38.8533 35.69C38.7064 35.4765 38.5596 35.2496 38.4262 35.036L38.1726 34.5956L37.8122 33.9149L37.5319 33.3676C37.4251 33.1274 37.3183 32.8871 37.2249 32.6469L37.0381 32.1931C36.9446 31.9261 36.8512 31.6725 36.7711 31.4056C36.691 31.1387 36.6777 31.1253 36.6376 30.9918C36.5309 30.6315 36.4508 30.2711 36.3707 29.8974V29.7506C38.0476 29.6664 39.7234 29.9346 41.2902 30.538C42.857 31.1414 44.2799 32.0666 45.4671 33.2538C46.6543 34.441 47.5795 35.8639 48.1829 37.4307C48.7863 38.9975 49.0545 40.6733 48.9703 42.3502L48.9169 42.4036ZM55.2301 10.998C55.6305 11.0781 56.0309 11.1715 56.4313 11.2916L56.805 11.4117L57.6326 11.692L58.073 11.8655L58.8071 12.1859L59.2475 12.3994L59.9282 12.7731L60.3554 13.0267L61.0227 13.4672L61.4098 13.7341L62.1038 14.268L62.4241 14.5216C62.7445 14.8019 63.0648 15.0955 63.3718 15.3891C63.678 15.689 63.9676 16.0054 64.2393 16.3368L64.4929 16.6571C64.6798 16.884 64.8533 17.1109 65.0268 17.3512L65.2938 17.7516C65.4406 17.9651 65.5874 18.192 65.7209 18.4189L65.9745 18.8594L66.3348 19.5401L66.5617 19.9939C66.6685 20.2341 66.7753 20.4744 66.8687 20.7146L67.0556 21.1684C67.149 21.4354 67.2424 21.689 67.3225 21.9559C67.4026 22.2228 67.4159 22.2362 67.456 22.3697C67.5628 22.73 67.6428 23.0904 67.7229 23.4641V23.6109C66.0461 23.6951 64.3702 23.4269 62.8034 22.8235C61.2366 22.2201 59.8137 21.2949 58.6265 20.1077C57.4393 18.9205 56.5142 17.4976 55.9108 15.9308C55.3074 14.364 55.0391 12.6882 55.1233 11.0113L55.2301 10.998ZM56.7783 21.9826C58.1422 23.3458 59.7612 24.4269 61.5429 25.1643C63.3246 25.9018 65.2341 26.281 67.1623 26.2803H68.0566C68.179 30.2193 66.8327 34.063 64.2794 37.0648L41.7229 14.5082C44.5996 12.0407 48.2634 10.6821 52.0535 10.6776H52.5473C52.413 12.752 52.7207 14.8313 53.4501 16.7779C54.1795 18.7244 55.3139 20.4939 56.7783 21.9692V21.9826ZM39.8409 16.3768L62.3841 38.9066C59.5257 41.3488 55.8931 42.6968 52.1336 42.7106H51.5863C51.7131 40.6356 51.3977 38.5574 50.6611 36.6134C49.9244 34.6695 48.7834 32.9041 47.3135 31.4341C45.8435 29.9642 44.0781 28.8231 42.1342 28.0865C40.1902 27.3499 38.112 27.0345 36.037 27.1612C35.9187 23.2143 37.2748 19.3647 39.8409 16.3635V16.3768ZM33.3676 27.5083L33.5144 28.7762C33.8593 31.8633 34.9645 34.8167 36.7311 37.3717H20.0206V17.3512H35.8902C34.0913 20.4243 33.2156 23.9506 33.3676 27.5083ZM77.4129 45.38H65.1603C64.8981 44.6343 64.421 43.9829 63.7892 43.5078C63.1574 43.0328 62.3992 42.7554 61.61 42.7106C62.9396 41.9301 64.1679 40.9887 65.2671 39.9077C67.1084 38.0814 68.5466 35.8896 69.4892 33.4735C70.4317 31.0574 70.8576 28.4706 70.7394 25.8799L70.5925 24.612C70.1193 20.4055 68.2378 16.4827 65.2537 13.4805C64.5118 12.7375 63.7081 12.0588 62.8513 11.4518C60.2676 9.62702 57.2653 8.48391 54.1223 8.12835L52.881 8.00823C50.2882 7.88897 47.6991 8.31431 45.2807 9.25684C42.8623 10.1994 40.6682 11.6382 38.8399 13.4805C38.4627 13.8615 38.1063 14.2625 37.7721 14.6818H19.3532C18.8222 14.6818 18.313 14.8927 17.9376 15.2681C17.5621 15.6436 17.3512 16.1528 17.3512 16.6838V38.0391C17.3512 38.5701 17.5621 39.0793 17.9376 39.4548C18.313 39.8302 18.8222 40.0411 19.3532 40.0411H38.9867C39.6872 40.7317 40.4415 41.3654 41.2424 41.9364C41.6295 42.2145 42.0304 42.4729 42.4436 42.7106H18.6859C17.8598 42.7129 17.0546 42.9707 16.3807 43.4486C15.7069 43.9265 15.1974 44.6011 14.922 45.38H2.66941V2.66941H77.4129V45.38Z" fill="#FF8800"/>
</svg>
