<svg width="44" height="44" viewBox="0 0 44 44" fill="none" xmlns="http://www.w3.org/2000/svg">
<g clip-path="url(#clip0_47_45)">
<path d="M0 37.8204C0 27.2915 0 16.7614 0 6.2325C0.228281 5.04409 1.0628 4.3332 2.30649 4.31062C3.50927 4.28911 4.71313 4.30739 5.91591 4.30416C6.46938 4.30201 6.48877 4.28158 6.49092 3.7191C6.49415 3.18997 6.48231 2.66083 6.49415 2.1317C6.5243 0.868008 7.38897 0.0216057 8.65205 0.0108509C10.3082 -0.00420581 11.1211 0.80563 11.1254 2.47692C11.1265 2.94906 11.1308 3.42119 11.1244 3.89333C11.1201 4.18263 11.2396 4.31922 11.5325 4.30416C11.6466 4.29879 11.7618 4.30416 11.876 4.30416C18.6221 4.30416 25.3682 4.30416 32.1143 4.30416C32.2145 4.30416 32.3157 4.29771 32.4148 4.30416C32.7421 4.3289 32.8842 4.18694 32.8778 3.85461C32.8681 3.29644 32.8649 2.73827 32.8789 2.18117C32.8982 1.45414 33.1825 0.854026 33.7543 0.392646C34.2927 -0.0418476 34.9323 -0.020338 35.559 0.0205302C36.6681 0.0915118 37.4574 0.925008 37.5015 2.04351C37.5252 2.64362 37.5145 3.24482 37.5048 3.84601C37.4994 4.17403 37.6297 4.31384 37.9603 4.30739C38.447 4.29879 38.9348 4.29126 39.4215 4.31062C40.3443 4.34718 41.0679 4.74941 41.5729 5.52698C41.7893 5.85931 41.8906 6.22497 41.8906 6.62397C41.8906 9.9429 41.8906 13.2618 41.8895 16.5808C41.8895 16.6668 41.8906 16.7528 41.8776 16.8378C41.827 17.169 41.7107 17.2271 41.4135 17.055C41.1906 16.926 40.9968 16.7518 40.7858 16.6055C38.1907 14.8073 35.3329 13.6748 32.1811 13.4264C28.6675 13.1489 25.3456 13.8706 22.2627 15.6171C20.9458 16.3624 19.7301 17.2465 18.6598 18.3058C15.7115 21.2247 13.9143 24.7286 13.4492 28.8703C13.0443 32.4753 13.7593 35.8695 15.4606 39.0658C15.7352 39.5809 15.6458 39.7433 15.0687 39.7444C10.8143 39.7519 6.56091 39.7541 2.30649 39.7433C1.56997 39.7412 0.949733 39.453 0.439332 38.9099C0.146444 38.5958 0.0742989 38.2119 0 37.8204Z" fill="#7CB83C"/>
<path d="M29.8208 43.9999C29.8423 43.8956 29.9188 43.9182 29.9898 43.9279C30.02 43.943 30.0307 43.958 30.0211 43.9741C30.0114 43.9913 30.0028 43.9989 29.9931 43.9989C29.9349 43.9999 29.8778 43.9999 29.8208 43.9999Z" fill="#898989"/>
<path d="M29.992 43.9998C29.992 43.9761 29.9909 43.9514 29.9887 43.9277C30.0458 43.9277 30.1029 43.9277 30.1599 43.9277C30.1912 43.9417 30.2019 43.9578 30.1922 43.974C30.1826 43.9912 30.1739 43.9998 30.1643 43.9998C30.1072 43.9998 30.0501 43.9998 29.992 43.9998Z" fill="#6F6F6F"/>
<path d="M30.1643 44.0001C30.1643 43.9764 30.1621 43.9517 30.1599 43.928C30.2342 43.9141 30.301 43.9184 30.3365 44.0001C30.2795 44.0001 30.2213 44.0001 30.1643 44.0001Z" fill="#545454"/>
<path d="M31.367 43.9998C31.4004 43.9138 31.4683 43.9138 31.5426 43.9278C31.5684 43.945 31.5759 43.9611 31.5662 43.9772C31.5565 43.9923 31.5479 43.9998 31.5393 43.9998C31.4823 43.9998 31.4252 43.9998 31.367 43.9998Z" fill="#646464"/>
<path d="M31.5393 43.9999C31.5393 43.9763 31.5404 43.9516 31.5426 43.9279C31.6136 43.9171 31.689 43.8956 31.7105 43.9999C31.6535 43.9999 31.5964 43.9999 31.5393 43.9999Z" fill="#7F7F7F"/>
<path d="M43.7007 28.0851C43.117 25.2448 41.7 22.8357 39.4936 20.9407C36.0877 18.0165 32.1456 16.9733 27.777 18.0154C22.1917 19.3458 18.2614 23.8671 17.6842 29.4994C17.3116 33.142 18.3303 36.4136 20.6734 39.2239C22.813 41.79 25.561 43.3483 28.8904 43.8431C29.0605 43.8678 29.2619 43.8312 29.3922 44.0001C29.5354 44.0001 29.6786 44.0001 29.8218 44.0001C29.8735 43.9441 29.9414 43.9592 30.0049 43.956C30.0544 43.956 30.104 43.956 30.1535 43.956C30.2181 43.9592 30.2859 43.9441 30.3376 44.0001C30.6811 44.0001 31.0246 44.0001 31.3692 44.0001C31.4166 43.9474 31.4801 43.9581 31.5415 43.956C31.6018 43.9581 31.6664 43.9474 31.7138 44.0001C31.8279 44.0001 31.9431 44.0001 32.0573 44.0001C32.544 43.7968 33.0738 43.8194 33.5777 43.7022C36.891 42.9321 39.5722 41.1974 41.5417 38.4269C43.7599 35.3037 44.4684 31.8246 43.7007 28.0851ZM35.4901 32.9796C33.8318 33.0452 32.1682 33.0409 30.5099 32.9807C29.3987 32.9409 28.6481 32.0924 28.6223 30.9728C28.5954 29.8156 28.6158 28.6562 28.6158 27.4979C28.6137 27.4979 28.6105 27.4979 28.6083 27.4979C28.6083 26.4106 28.6083 25.3244 28.6083 24.2371C28.6083 22.1334 30.6801 21.6344 31.9237 22.298C32.7023 22.7131 32.9919 23.4176 32.9973 24.2575C33.0059 25.5449 33.0167 26.8322 32.9898 28.1185C32.9812 28.5132 33.0512 28.667 33.4873 28.6369C34.1139 28.5949 34.7471 28.6132 35.376 28.6379C36.555 28.6842 37.354 29.5209 37.3863 30.7147C37.4219 31.9816 36.6907 32.9312 35.4901 32.9796Z" fill="#7CB83C"/>
</g>
<defs>
<clipPath id="clip0_47_45">
<rect width="44" height="44" fill="white"/>
</clipPath>
</defs>
</svg>
