<svg width="73" height="73" viewBox="0 0 73 73" fill="none" xmlns="http://www.w3.org/2000/svg">
<path d="M48.172 14.867C48.2477 15.2482 48.4371 15.5975 48.7152 15.8689C48.9933 16.1404 49.347 16.3213 49.7299 16.3878C50.1128 16.4543 50.5069 16.4033 50.8602 16.2415C51.2135 16.0797 51.5096 15.8147 51.7094 15.4814C51.9092 15.1481 52.0034 14.7621 51.9796 14.3742C51.9557 13.9863 51.815 13.6147 51.5759 13.3084C51.3368 13.002 51.0106 12.7752 50.6401 12.6579C50.2696 12.5406 49.8723 12.5382 49.5004 12.651C49.0435 12.7897 48.6545 13.0933 48.4089 13.5029C48.1634 13.9124 48.079 14.3986 48.172 14.867Z" fill="#FF8800"/>
<path d="M70.5673 15.7512L62.9462 14.7018C62.2277 11.704 60.7968 8.92365 58.7749 6.59661C56.753 4.26956 54.1996 2.46447 51.3315 1.33442C48.4633 0.204372 45.3649 -0.217298 42.2991 0.105173C39.2333 0.427644 36.2904 1.48474 33.7201 3.18682C31.1499 4.88889 29.028 7.18573 27.5345 9.88253C26.041 12.5793 25.2199 15.5966 25.1408 18.6783C25.0618 21.76 25.7271 24.8154 27.0804 27.5852C28.4337 30.355 30.435 32.7576 32.9147 34.5892C31.3329 35.9882 29.4796 37.046 27.4706 37.6965C25.4617 38.347 23.3401 38.5763 21.2386 38.37C19.137 38.1637 17.1005 37.5262 15.2564 36.4975C13.4123 35.4687 11.8001 34.0707 10.5205 32.3909C10.3419 32.1497 10.1144 31.9489 9.85278 31.8018C9.59118 31.6547 9.30145 31.5645 9.00257 31.5372C8.70369 31.5098 8.4024 31.5459 8.11845 31.6431C7.8345 31.7404 7.5743 31.8965 7.35489 32.1013C2.61108 36.5484 0 42.0391 0 47.5614C0 61.3391 15.031 72.549 33.5068 72.549C51.9039 72.549 66.8717 61.3391 66.8717 47.5614C66.8717 41.5935 64.0894 35.954 58.9833 31.4822C59.5765 30.7759 60.1176 30.0274 60.6025 29.2428C67.2996 29.1584 72.693 24.5388 72.693 17.8816C72.693 17.3175 72.4691 16.7764 72.0706 16.3772C71.672 15.978 71.1314 15.7533 70.5673 15.7524V15.7512ZM54.3333 61.9781C48.2277 66.2199 40.9399 68.4284 33.5068 68.2895C11.5617 68.2895 -3.77769 50.9604 8.70322 36.8169C10.6327 38.7861 12.9559 40.3261 15.521 41.3365C18.0862 42.3469 20.8356 42.8048 23.5897 42.6804C26.3438 42.5561 29.0408 41.8522 31.5044 40.6147C33.968 39.3773 36.1429 37.6341 37.8871 35.4991C38.082 35.2554 38.221 34.9719 38.2943 34.6686C38.3675 34.3653 38.3733 34.0496 38.3111 33.7438C38.2489 33.438 38.1203 33.1496 37.9344 32.899C37.7485 32.6484 37.5098 32.4417 37.2352 32.2935C35.03 31.1276 33.1514 29.4287 31.7703 27.3514C30.3892 25.2741 29.5496 22.8844 29.3278 20.3998C29.106 17.9152 29.5091 15.4146 30.5003 13.1256C31.4916 10.8365 33.0396 8.83167 35.0034 7.29354C36.9672 5.75542 39.2845 4.73283 41.7444 4.31885C44.2043 3.90487 46.7287 4.11264 49.0877 4.92325C51.4468 5.73386 53.5658 7.12157 55.2517 8.96008C56.9376 10.7986 58.1369 13.0295 58.7406 15.4499C57.5133 16.0803 56.4834 17.0366 55.7638 18.2139C55.0443 19.3911 54.6629 20.7438 54.6616 22.1236V23.4918C54.6619 24.285 54.8265 25.0695 55.1449 25.7959C55.4633 26.5224 55.9287 27.175 56.5117 27.7127C55.8966 28.5891 55.189 29.3969 54.4013 30.1221C54.1714 30.3344 53.991 30.5948 53.8731 30.8847C53.7552 31.1745 53.7026 31.4868 53.7191 31.7994C53.7355 32.1119 53.8206 32.4169 53.9683 32.6928C54.116 32.9687 54.3227 33.2087 54.5737 33.3957C65.3779 41.4376 65.2818 53.9455 54.3309 61.9792L54.3333 61.9781ZM60.4184 24.9867C60.0215 24.9861 59.641 24.8282 59.3604 24.5475C59.0797 24.2669 58.9218 23.8864 58.9212 23.4895V22.12C58.922 21.2817 59.2469 20.4761 59.8279 19.8717C60.4089 19.2673 61.2011 18.9109 62.0387 18.877L68.2036 19.7247C67.2949 23.1858 63.8385 24.9856 60.4184 24.9856V24.9867Z" fill="#FF8800"/>
<path d="M46.758 43.3143C45.2672 42.4723 43.5399 42.1468 41.8449 42.3886C40.1499 42.6303 38.5824 43.4257 37.3865 44.6509C33.78 48.1484 26.9269 48.8718 23.1633 48.9891C22.8711 48.9981 22.5848 49.0737 22.3262 49.21C22.0675 49.3462 21.8434 49.5397 21.6707 49.7756C21.498 50.0114 21.3813 50.2836 21.3295 50.5713C21.2777 50.859 21.2922 51.1547 21.3718 51.436C22.6052 55.7952 27.7687 60.2096 35.2514 60.2096C38.8041 60.2773 42.3188 59.4687 45.4847 57.8553C48.505 56.1951 50.2918 53.8548 50.5052 51.266C50.898 46.5879 48.6844 44.359 46.758 43.3143ZM46.6713 50.9354C46.452 53.5523 41.8102 56.3545 35.2514 56.3545C33.5833 56.4271 31.9197 56.1306 30.3794 55.4861C28.8391 54.8416 27.46 53.865 26.3407 52.6261C30.7163 52.1829 36.4614 50.9072 40.0679 47.4109C40.6711 46.751 41.4833 46.3192 42.3677 46.1883C43.2521 46.0574 44.1546 46.2353 44.9231 46.6922C45.8611 47.2034 46.9093 48.1472 46.6748 50.9354H46.6713Z" fill="#FF8800"/>
</svg>
