<svg width="27" height="27" viewBox="0 0 27 27" fill="none" xmlns="http://www.w3.org/2000/svg">
<path d="M19.8821 1.11102L16.8111 1.10596C13.3609 1.10596 11.1313 3.45582 11.1313 7.09285V9.8532H8.04349C7.77668 9.8532 7.56061 10.0754 7.56061 10.3495V14.3489C7.56061 14.623 7.77692 14.845 8.04349 14.845H11.1313V24.9368C11.1313 25.2109 11.3473 25.4329 11.6141 25.4329H15.6428C15.9096 25.4329 16.1257 25.2107 16.1257 24.9368V14.845H19.736C20.0028 14.845 20.2189 14.623 20.2189 14.3489L20.2204 10.3495C20.2204 10.2179 20.1694 10.0919 20.079 9.99872C19.9885 9.90559 19.8654 9.8532 19.7372 9.8532H16.1257V7.51321C16.1257 6.38852 16.3866 5.81757 17.8128 5.81757L19.8816 5.81681C20.1482 5.81681 20.3643 5.5946 20.3643 5.32077V1.60706C20.3643 1.33348 20.1484 1.11152 19.8821 1.11102Z" fill="white"/>
</svg>
