<svg width="49" height="47" viewBox="0 0 49 47" fill="none" xmlns="http://www.w3.org/2000/svg">
<path opacity="0.25" fill-rule="evenodd" clip-rule="evenodd" d="M24.2037 45.5192C37.0188 45.5192 47.4074 35.5532 47.4074 23.2596C47.4074 10.966 37.0188 1 24.2037 1C11.3887 1 1 10.966 1 23.2596C1 35.5532 11.3887 45.5192 24.2037 45.5192Z" stroke="white" stroke-width="1.7237"/>
<path d="M26.3166 17.5618H28.4492C28.6453 17.5618 28.8046 17.4178 28.8046 17.2404V15.3125C28.8046 15.1352 28.6453 14.9912 28.4492 14.9912H26.3166C24.1612 14.9912 22.4068 16.5766 22.4068 18.5257V20.7749H19.9188C19.7226 20.7749 19.5634 20.9189 19.5634 21.0963V23.0242C19.5634 23.2015 19.7226 23.3455 19.9188 23.3455H22.4068V30.0932C22.4068 30.2705 22.566 30.4145 22.7622 30.4145H24.8948C25.091 30.4145 25.2503 30.2705 25.2503 30.0932V23.3455H27.7383C27.8911 23.3455 28.0269 23.2568 28.0759 23.1257L28.7868 21.1978C28.8231 21.1001 28.8046 20.9922 28.7378 20.908C28.6702 20.8244 28.5636 20.7749 28.4492 20.7749H25.2503V18.5257C25.2503 17.9943 25.7287 17.5618 26.3166 17.5618Z" fill="white"/>
</svg>
