<svg width="49" height="47" viewBox="0 0 49 47" fill="none" xmlns="http://www.w3.org/2000/svg">
<path fill-rule="evenodd" clip-rule="evenodd" d="M13.6414 23.8127C13.6414 19.5496 13.6414 17.4181 14.7097 15.9476C15.0548 15.4727 15.4724 15.055 15.9473 14.71C17.4178 13.6416 19.5494 13.6416 23.8125 13.6416C28.0755 13.6416 30.2071 13.6416 31.6776 14.71C32.1525 15.055 32.5701 15.4727 32.9152 15.9476C33.9835 17.4181 33.9835 19.5496 33.9835 23.8127C33.9835 28.0758 33.9835 30.2073 32.9152 31.6778C32.5701 32.1527 32.1525 32.5704 31.6776 32.9154C30.2071 33.9838 28.0755 33.9838 23.8125 33.9838C19.5494 33.9838 17.4178 33.9838 15.9473 32.9154C15.4724 32.5704 15.0548 32.1527 14.7097 31.6778C13.6414 30.2073 13.6414 28.0758 13.6414 23.8127ZM23.8125 18.4282C20.8388 18.4282 18.4278 20.8392 18.4278 23.8129C18.4278 26.7866 20.8388 29.1976 23.8125 29.1976C26.7862 29.1976 29.1972 26.7866 29.1972 23.8129C29.1972 20.8392 26.7862 18.4282 23.8125 18.4282ZM23.8125 27.1783C21.9575 27.1783 20.4471 25.6679 20.4471 23.8129C20.4471 21.9565 21.9575 20.4475 23.8125 20.4475C25.6676 20.4475 27.178 21.9565 27.178 23.8129C27.178 25.6679 25.6676 27.1783 23.8125 27.1783ZM30.3185 18.0243C30.3185 18.4206 29.9973 18.7418 29.601 18.7418C29.2048 18.7418 28.8835 18.4206 28.8835 18.0243C28.8835 17.6281 29.2048 17.3068 29.601 17.3068C29.9973 17.3068 30.3185 17.6281 30.3185 18.0243Z" fill="white"/>
<path opacity="0.25" fill-rule="evenodd" clip-rule="evenodd" d="M24.2037 45.5192C37.0188 45.5192 47.4074 35.5532 47.4074 23.2596C47.4074 10.966 37.0188 1 24.2037 1C11.3887 1 1 10.966 1 23.2596C1 35.5532 11.3887 45.5192 24.2037 45.5192Z" stroke="white" stroke-width="1.7237"/>
</svg>
