<svg width="66" height="83" viewBox="0 0 66 83" fill="none" xmlns="http://www.w3.org/2000/svg">
<path d="M61.6853 24.6729H58.9493V6.85378C58.9473 5.03536 58.2235 3.29209 56.937 2.00697C55.6505 0.721854 53.9064 -1.07538e-06 52.088 0L13.7076 0C11.8904 0.00197514 10.1483 0.724702 8.86339 2.00961C7.57849 3.29451 6.85576 5.03665 6.85378 6.85378V24.6729H4.11774C3.02641 24.6725 1.97961 25.1056 1.20745 25.8768C0.435297 26.648 0.000989073 27.6943 0 28.7856V53.4585C0.000987895 54.549 0.434613 55.5945 1.20569 56.3656C1.97677 57.1367 3.0223 57.5703 4.11277 57.5713H6.84881V75.3904C6.85078 77.2075 7.57351 78.9497 8.85842 80.2346C10.1433 81.5195 11.8855 82.2422 13.7026 82.2442H52.088C53.9051 82.2422 55.6473 81.5195 56.9322 80.2346C58.2171 78.9497 58.9398 77.2075 58.9418 75.3904V57.57H61.6778C62.7679 57.5687 63.8129 57.1351 64.5837 56.3643C65.3545 55.5936 65.7881 54.5486 65.7894 53.4585V28.7856C65.7884 27.6967 65.356 26.6525 64.5868 25.8816C63.8176 25.1108 62.7743 24.6762 61.6853 24.6729ZM39.751 2.73604V5.47208H24.6729V2.73604H39.751ZM42.4945 74.0137H15.0781V42.492H23.4106C23.7282 44.7819 24.8634 46.8797 26.6068 48.398C28.3502 49.9163 30.5841 50.7526 32.8959 50.7526C35.2078 50.7526 37.4416 49.9163 39.185 48.398C40.9284 46.8797 42.0637 44.7819 42.3813 42.492H50.7138V74.0186L42.4945 74.0137ZM39.6117 42.487C39.2961 44.0353 38.4553 45.427 37.2315 46.4266C36.0077 47.4261 34.4761 47.9721 32.8959 47.9721C31.3158 47.9721 29.7842 47.4261 28.5604 46.4266C27.3366 45.427 26.4957 44.0353 26.1802 42.487H39.6117ZM26.1802 39.7509C26.4957 38.2026 27.3366 36.8109 28.5604 35.8114C29.7842 34.8118 31.3158 34.2658 32.8959 34.2658C34.4761 34.2658 36.0077 34.8118 37.2315 35.8114C38.4553 36.8109 39.2961 38.2026 39.6117 39.7509H26.1802ZM50.715 39.7509H42.3825C42.0649 37.461 40.9297 35.3633 39.1863 33.845C37.4428 32.3267 35.209 31.4903 32.8972 31.4903C30.5853 31.4903 28.3515 32.3267 26.6081 33.845C24.8647 35.3633 23.7294 37.461 23.4118 39.7509H15.0793V8.22429H50.7163L50.715 39.7509ZM4.11277 54.829C3.74995 54.829 3.40198 54.6849 3.14543 54.4283C2.88888 54.1718 2.74475 53.8238 2.74475 53.461V28.7856C2.74475 28.606 2.78013 28.4281 2.84888 28.2621C2.91763 28.0961 3.0184 27.9453 3.14543 27.8183C3.27246 27.6913 3.42327 27.5905 3.58925 27.5218C3.75523 27.453 3.93312 27.4176 4.11277 27.4176H6.84881V54.829H4.11277ZM9.5948 75.3904V6.85378C9.59447 5.76245 10.0275 4.71565 10.7987 3.94349C11.57 3.17134 12.6162 2.73703 13.7076 2.73604H21.9319V5.47208H15.0781C14.3531 5.47438 13.6586 5.76338 13.1459 6.27599C12.6333 6.7886 12.3443 7.48319 12.342 8.20812V73.9975C12.3443 74.7224 12.6333 75.417 13.1459 75.9296C13.6586 76.4422 14.3531 76.7312 15.0781 76.7335H23.3024V79.4696H13.7076C12.6171 79.4686 11.5716 79.035 10.8005 78.2639C10.0294 77.4928 9.59579 76.4473 9.5948 75.3568V75.3904ZM26.0434 79.5031V76.7671H41.1215V79.5031H26.0434ZM56.1995 75.3904C56.1986 76.4809 55.7649 77.5264 54.9938 78.2975C54.2228 79.0685 53.1772 79.5022 52.0868 79.5031H43.8637V76.7671H50.7163C51.4412 76.7648 52.1358 76.4758 52.6484 75.9632C53.161 75.4506 53.45 74.756 53.4523 74.0311V8.22429C53.45 7.49935 53.161 6.80477 52.6484 6.29215C52.1358 5.77954 51.4412 5.49055 50.7163 5.48825H42.492V2.73604H52.0868C53.1772 2.73703 54.2228 3.17065 54.9938 3.94173C55.7649 4.71281 56.1986 5.75834 56.1995 6.84881V75.3904ZM63.0533 53.4585C63.0533 53.8213 62.9092 54.1693 62.6526 54.4259C62.3961 54.6824 62.0481 54.8265 61.6853 54.8265H58.9493V27.4139H61.6853C62.0481 27.4139 62.3961 27.558 62.6526 27.8146C62.9092 28.0711 63.0533 28.4191 63.0533 28.7819V53.4585Z" fill="white"/>
<path d="M32.8983 10.9651C31.5428 10.9651 30.2177 11.3671 29.0906 12.1202C27.9635 12.8733 27.085 13.9437 26.5663 15.196C26.0475 16.4484 25.9118 17.8265 26.1763 19.156C26.4407 20.4855 27.0935 21.7067 28.052 22.6652C29.0105 23.6237 30.2317 24.2765 31.5612 24.541C32.8907 24.8054 34.2688 24.6697 35.5212 24.1509C36.7735 23.6322 37.844 22.7537 38.5971 21.6266C39.3502 20.4995 39.7521 19.1744 39.7521 17.8189C39.7521 16.0011 39.03 14.2578 37.7447 12.9725C36.4594 11.6872 34.7161 10.9651 32.8983 10.9651ZM32.8983 21.9304C32.0849 21.9304 31.2898 21.6892 30.6134 21.2373C29.9371 20.7854 29.4099 20.143 29.0986 19.3915C28.7874 18.64 28.7059 17.8131 28.8646 17.0153C29.0233 16.2175 29.415 15.4846 29.9902 14.9095C30.5654 14.3343 31.2982 13.9426 32.096 13.7839C32.8938 13.6252 33.7207 13.7066 34.4722 14.0179C35.2237 14.3292 35.8661 14.8564 36.318 15.5327C36.7699 16.209 37.0111 17.0042 37.0111 17.8176C37.0111 18.9084 36.5778 19.9545 35.8065 20.7258C35.0352 21.4971 33.9891 21.9304 32.8983 21.9304Z" fill="white"/>
<path d="M33.8709 16.8454C33.6058 16.6009 33.2584 16.4651 32.8977 16.4651C32.5371 16.4651 32.1897 16.6009 31.9246 16.8454C31.8004 16.9761 31.7025 17.1293 31.6361 17.2969C31.5658 17.4617 31.5286 17.6388 31.5266 17.818C31.5291 18.1817 31.6716 18.5304 31.9246 18.7917C31.9914 18.8542 32.0648 18.9092 32.1435 18.9559C32.2133 19.0104 32.292 19.0524 32.376 19.0803C32.4545 19.1197 32.5383 19.1473 32.6248 19.1624C32.7156 19.1781 32.8074 19.1873 32.8996 19.1897C33.1254 19.1921 33.3481 19.138 33.5477 19.0325C33.7473 18.9271 33.9174 18.7734 34.0427 18.5856C34.1679 18.3977 34.2443 18.1816 34.2649 17.9568C34.2855 17.732 34.2497 17.5056 34.1607 17.2981C34.091 17.1325 33.9939 16.9799 33.8734 16.8467L33.8709 16.8454Z" fill="white"/>
<path d="M32.8983 57.5701C31.5428 57.5701 30.2177 57.972 29.0906 58.7251C27.9635 59.4782 27.085 60.5487 26.5663 61.801C26.0475 63.0534 25.9118 64.4315 26.1763 65.761C26.4407 67.0905 27.0935 68.3117 28.052 69.2702C29.0105 70.2287 30.2317 70.8815 31.5612 71.1459C32.8907 71.4104 34.2688 71.2747 35.5212 70.7559C36.7735 70.2372 37.844 69.3587 38.5971 68.2316C39.3502 67.1045 39.7521 65.7794 39.7521 64.4239C39.7521 62.6061 39.03 60.8628 37.7447 59.5775C36.4594 58.2922 34.7161 57.5701 32.8983 57.5701ZM32.8983 68.5354C32.0849 68.5354 31.2898 68.2942 30.6134 67.8422C29.9371 67.3903 29.4099 66.748 29.0986 65.9965C28.7874 65.245 28.7059 64.418 28.8646 63.6202C29.0233 62.8225 29.415 62.0896 29.9902 61.5144C30.5654 60.9393 31.2982 60.5476 32.096 60.3889C32.8938 60.2302 33.7207 60.3116 34.4722 60.6229C35.2237 60.9342 35.8661 61.4613 36.318 62.1377C36.7699 62.814 37.0111 63.6092 37.0111 64.4226C37.0111 65.5134 36.5778 66.5595 35.8065 67.3308C35.0352 68.1021 33.9891 68.5354 32.8983 68.5354Z" fill="white"/>
<path d="M32.376 63.1625C32.2085 63.2289 32.0552 63.3269 31.9246 63.451C31.6746 63.7128 31.5325 64.0592 31.5266 64.4211C31.5294 64.5128 31.5386 64.6042 31.554 64.6947C31.5686 64.7813 31.5963 64.8651 31.6361 64.9434C31.6662 65.0315 31.708 65.1152 31.7604 65.1922C31.811 65.2638 31.8658 65.3323 31.9246 65.3974C32.1845 65.6521 32.5339 65.7947 32.8977 65.7947C33.2616 65.7947 33.611 65.6521 33.8709 65.3974C33.9297 65.3323 33.9845 65.2638 34.0351 65.1922C34.0875 65.1152 34.1293 65.0315 34.1594 64.9434C34.1989 64.865 34.2265 64.7812 34.2415 64.6947C34.2566 64.6042 34.2657 64.5128 34.2689 64.4211C34.2635 64.058 34.1214 63.7103 33.8709 63.4473C33.6779 63.2572 33.4328 63.1286 33.1667 63.0779C32.9006 63.0272 32.6254 63.0566 32.376 63.1625Z" fill="white"/>
<path d="M18.2182 11.3631C18.0286 11.5551 17.8999 11.7989 17.8485 12.0638C17.797 12.3287 17.8251 12.6029 17.9291 12.8519C18.0331 13.1009 18.2085 13.3136 18.4331 13.4632C18.6577 13.6128 18.9215 13.6926 19.1914 13.6926C19.4613 13.6926 19.7251 13.6128 19.9497 13.4632C20.1743 13.3136 20.3497 13.1009 20.4537 12.8519C20.5577 12.6029 20.5858 12.3287 20.5343 12.0638C20.4829 11.7989 20.3542 11.5551 20.1645 11.3631C19.8991 11.1194 19.5518 10.9841 19.1914 10.9841C18.831 10.9841 18.4837 11.1194 18.2182 11.3631Z" fill="white"/>
<path d="M22.3298 14.1041C22.1401 14.2961 22.0115 14.5398 21.96 14.8048C21.9086 15.0697 21.9366 15.3439 22.0407 15.5929C22.1447 15.8419 22.32 16.0546 22.5446 16.2042C22.7693 16.3538 23.0331 16.4336 23.303 16.4336C23.5728 16.4336 23.8367 16.3538 24.0613 16.2042C24.2859 16.0546 24.4612 15.8419 24.5653 15.5929C24.6693 15.3439 24.6973 15.0697 24.6459 14.8048C24.5944 14.5398 24.4658 14.2961 24.2761 14.1041C24.0106 13.8603 23.6634 13.7251 23.303 13.7251C22.9426 13.7251 22.5953 13.8603 22.3298 14.1041Z" fill="white"/>
<path d="M22.7812 19.2987C22.6154 19.3685 22.4627 19.4661 22.3297 19.5872C22.0774 19.848 21.9349 20.1957 21.9318 20.5585C21.9338 20.7377 21.9709 20.9148 22.0412 21.0796C22.1033 21.2511 22.2023 21.4068 22.3312 21.5358C22.4602 21.6647 22.6159 21.7638 22.7874 21.8258C22.9522 21.8961 23.1293 21.9333 23.3085 21.9353C23.6721 21.9324 24.0207 21.7899 24.2823 21.5373C24.537 21.2774 24.6796 20.928 24.6796 20.5641C24.6796 20.2002 24.537 19.8509 24.2823 19.591C24.0862 19.4067 23.842 19.2818 23.5778 19.2307C23.3137 19.1796 23.0405 19.2045 22.7899 19.3024L22.7812 19.2987Z" fill="white"/>
<path d="M24.5633 25.5221C24.5331 25.4341 24.4913 25.3504 24.439 25.2734C24.3888 25.2015 24.3339 25.1329 24.2748 25.0682C24.112 24.9117 23.9143 24.7962 23.6981 24.7313C23.4818 24.6665 23.2532 24.654 23.0312 24.6951C22.9446 24.7097 22.8607 24.7374 22.7824 24.7772C22.6944 24.8074 22.6107 24.8492 22.5337 24.9015L22.3285 25.0657L22.1643 25.2709C22.112 25.3479 22.0702 25.4316 22.04 25.5196C22.0002 25.5979 21.9725 25.6818 21.9579 25.7684C21.9423 25.8584 21.9336 25.9494 21.9318 26.0407C21.9369 26.4039 22.079 26.7517 22.3297 27.0145C22.3945 27.0736 22.463 27.1284 22.5349 27.1787C22.612 27.231 22.6956 27.2728 22.7837 27.303C22.8621 27.3424 22.9459 27.3701 23.0324 27.3851C23.1232 27.4009 23.2151 27.41 23.3072 27.4125C23.4873 27.4138 23.6658 27.3793 23.8323 27.311C23.9989 27.2427 24.1502 27.142 24.2775 27.0147C24.4048 26.8874 24.5055 26.7361 24.5738 26.5695C24.6421 26.403 24.6766 26.2245 24.6753 26.0444C24.6728 25.9523 24.6637 25.8604 24.6479 25.7696C24.6329 25.6831 24.6052 25.5993 24.5658 25.5209L24.5633 25.5221Z" fill="white"/>
<path d="M24.2761 30.5529C24.1427 30.4317 23.9896 30.3341 23.8234 30.2644C23.5733 30.1635 23.2993 30.1371 23.0346 30.1883C22.7698 30.2395 22.5255 30.3661 22.331 30.5529C22.2098 30.6859 22.1122 30.8385 22.0424 31.0043C21.9719 31.1687 21.9343 31.3453 21.9318 31.5242C21.9369 31.8873 22.079 32.2352 22.3297 32.498L22.5349 32.6621C22.612 32.7144 22.6956 32.7562 22.7837 32.7865C22.8621 32.8259 22.9459 32.8536 23.0324 32.8686C23.1232 32.8844 23.2151 32.8935 23.3072 32.8959C23.4871 32.9007 23.6656 32.8633 23.8283 32.7865C23.9944 32.7169 24.1474 32.6198 24.281 32.4992C24.5311 32.2365 24.6732 31.8893 24.679 31.5267C24.677 31.3475 24.6398 31.1704 24.5696 31.0056C24.4982 30.8391 24.3989 30.686 24.2761 30.5529Z" fill="white"/>
<path d="M20.1646 16.8455C20.0334 16.7214 19.8797 16.6235 19.7119 16.557C19.4618 16.4557 19.1878 16.429 18.9229 16.4802C18.6581 16.5314 18.4137 16.6583 18.2195 16.8455C18.0983 16.9785 18.0007 17.1312 17.931 17.297C17.8049 17.5908 17.7858 17.9194 17.8769 18.2258C17.9679 18.5323 18.1634 18.7971 18.4294 18.9745C18.6954 19.1518 19.015 19.2304 19.3329 19.1965C19.6508 19.1627 19.9468 19.0187 20.1695 18.7893C20.4222 18.5278 20.5646 18.1792 20.5675 17.8156C20.5655 17.6364 20.5283 17.4593 20.4581 17.2945C20.3918 17.1271 20.2943 16.9739 20.1708 16.843L20.1646 16.8455Z" fill="white"/>
<path d="M18.2182 22.3285C18.0286 22.5204 17.8999 22.7642 17.8485 23.0291C17.797 23.294 17.8251 23.5683 17.9291 23.8173C18.0331 24.0663 18.2085 24.279 18.4331 24.4285C18.6577 24.5781 18.9215 24.658 19.1914 24.658C19.4613 24.658 19.7251 24.5781 19.9497 24.4285C20.1743 24.279 20.3497 24.0663 20.4537 23.8173C20.5577 23.5683 20.5858 23.294 20.5343 23.0291C20.4829 22.7642 20.3542 22.5204 20.1645 22.3285C19.8991 22.0847 19.5518 21.9495 19.1914 21.9495C18.831 21.9495 18.4837 22.0847 18.2182 22.3285Z" fill="white"/>
<path d="M18.6697 27.5232C18.5039 27.593 18.3512 27.6906 18.2183 27.8117C17.9681 28.0738 17.8259 28.4207 17.8203 28.783C17.8228 29.1467 17.9653 29.4955 18.2183 29.7568C18.3515 29.8773 18.5041 29.9745 18.6697 30.0441C18.8325 30.1209 19.0109 30.1583 19.1908 30.1535C19.5539 30.148 19.9016 30.0059 20.1646 29.7556L20.3288 29.5504C20.3812 29.4734 20.423 29.3897 20.4531 29.3016C20.4926 29.2232 20.5202 29.1394 20.5352 29.0529C20.5509 28.9625 20.5601 28.871 20.5626 28.7793C20.5572 28.4162 20.4151 28.0684 20.1646 27.8055C19.9703 27.6184 19.7259 27.4916 19.4611 27.4404C19.1963 27.3892 18.9223 27.4158 18.6722 27.517L18.6697 27.5232Z" fill="white"/>
<path d="M27.9362 27.523C27.7289 27.4345 27.5028 27.3989 27.2783 27.4195C27.0538 27.4402 26.838 27.5163 26.6503 27.6412C26.4627 27.7661 26.309 27.9357 26.2033 28.1348C26.0975 28.3339 26.043 28.5562 26.0446 28.7816C26.0467 28.8734 26.0559 28.9648 26.072 29.0552C26.0866 29.1418 26.1143 29.2256 26.154 29.3039C26.1842 29.392 26.226 29.4757 26.2784 29.5527L26.4426 29.7579C26.7055 30.0084 27.0532 30.1505 27.4163 30.1558C27.5962 30.1607 27.7747 30.1232 27.9374 30.0464C28.1035 29.9769 28.2565 29.8797 28.3901 29.7591C28.6425 29.4979 28.7849 29.1498 28.7881 28.7866C28.7827 28.4235 28.6406 28.0757 28.3901 27.8128C28.2567 27.6916 28.1036 27.594 27.9374 27.5243L27.9362 27.523Z" fill="white"/>
<path d="M20.1646 33.295L19.9594 33.1308C19.8824 33.0784 19.7988 33.0366 19.7107 33.0065C19.6324 32.9667 19.5485 32.939 19.4619 32.9244C19.2399 32.8799 19.0104 32.8907 18.7936 32.9557C18.5767 33.0208 18.3792 33.1381 18.2183 33.2975C18.0971 33.4304 17.9996 33.5831 17.9298 33.7489C17.8428 33.9559 17.8085 34.1811 17.8299 34.4046C17.8513 34.628 17.9278 34.8427 18.0525 35.0293C18.1772 35.216 18.3462 35.3689 18.5444 35.4742C18.7426 35.5796 18.9639 35.6341 19.1883 35.6331C19.2801 35.6306 19.3715 35.6214 19.4619 35.6057C19.5484 35.5907 19.6322 35.563 19.7107 35.5236C19.7988 35.4935 19.8824 35.4516 19.9594 35.3992C20.031 35.3487 20.0996 35.2939 20.1646 35.2351C20.415 34.9721 20.5571 34.6244 20.5626 34.2613C20.5606 34.0821 20.5234 33.9051 20.4531 33.7402C20.3835 33.5746 20.2864 33.422 20.1659 33.2888L20.1646 33.295Z" fill="white"/>
<path d="M46.6022 13.7025C46.7821 13.7073 46.9606 13.6698 47.1233 13.593C47.2893 13.5235 47.4423 13.4263 47.576 13.3057C47.8307 13.0459 47.9733 12.6965 47.9733 12.3326C47.9733 11.9687 47.8307 11.6193 47.576 11.3594C47.4448 11.2353 47.2912 11.1374 47.1233 11.0709C46.8733 10.9696 46.5992 10.9429 46.3344 10.9941C46.0695 11.0453 45.8251 11.1722 45.6309 11.3594C45.4367 11.5506 45.3039 11.7954 45.2497 12.0624C45.1955 12.3295 45.2223 12.6066 45.3267 12.8584C45.431 13.1101 45.6082 13.3249 45.8355 13.4753C46.0627 13.6257 46.3297 13.7048 46.6022 13.7025Z" fill="white"/>
<path d="M41.5206 16.0507C41.7835 16.3012 42.1312 16.4433 42.4943 16.4487C42.5861 16.4462 42.6775 16.4371 42.7679 16.4213C42.8544 16.4063 42.9382 16.3787 43.0167 16.3392C43.1009 16.3117 43.1796 16.2696 43.2492 16.2149C43.3282 16.1681 43.402 16.113 43.4694 16.0507C43.7241 15.7908 43.8667 15.4414 43.8667 15.0776C43.8667 14.7137 43.7241 14.3643 43.4694 14.1044C43.401 14.0497 43.3326 13.995 43.2492 13.9402C43.1796 13.8855 43.1009 13.8434 43.0167 13.8159C42.9384 13.7761 42.8545 13.7484 42.7679 13.7338C42.5459 13.6937 42.3175 13.7065 42.1014 13.7714C41.8853 13.8362 41.6876 13.9512 41.5243 14.1069C41.2696 14.3668 41.127 14.7162 41.127 15.08C41.127 15.4439 41.2696 15.7933 41.5243 16.0532L41.5206 16.0507Z" fill="white"/>
<path d="M41.9721 19.2991C41.8063 19.3689 41.6536 19.4665 41.5206 19.5877C41.2704 19.8498 41.1283 20.1966 41.1227 20.5589C41.1247 20.7381 41.1619 20.9152 41.2321 21.08C41.2942 21.2515 41.3932 21.4073 41.5221 21.5362C41.6511 21.6652 41.8068 21.7642 41.9783 21.8262C42.1432 21.8965 42.3202 21.9337 42.4994 21.9357C42.863 21.9328 43.2116 21.7903 43.4732 21.5377C43.7279 21.2778 43.8705 20.9284 43.8705 20.5645C43.8705 20.2007 43.7279 19.8513 43.4732 19.5914C43.2768 19.4048 43.0312 19.2782 42.7652 19.2264C42.4993 19.1746 42.2242 19.1999 41.9721 19.2991Z" fill="white"/>
<path d="M43.7543 25.5212C43.724 25.4331 43.6822 25.3495 43.6299 25.2724L43.4657 25.0672C43.24 24.8372 42.9414 24.6927 42.6209 24.6585C42.3004 24.6243 41.978 24.7025 41.7088 24.8797C41.4396 25.0569 41.2403 25.3221 41.145 25.63C41.0498 25.9379 41.0644 26.2693 41.1865 26.5676C41.3085 26.8659 41.5304 27.1125 41.8142 27.2653C42.098 27.4181 42.426 27.4675 42.7422 27.4052C43.0585 27.3428 43.3432 27.1726 43.5478 26.9235C43.7523 26.6745 43.864 26.3621 43.8637 26.0398C43.8613 25.9476 43.8521 25.8558 43.8363 25.7649C43.8213 25.6784 43.7937 25.5946 43.7543 25.5162V25.5212Z" fill="white"/>
<path d="M43.467 30.5528C43.2727 30.3656 43.0284 30.2387 42.7635 30.1875C42.4986 30.1363 42.2246 30.1629 41.9746 30.2643C41.8031 30.3263 41.6474 30.4253 41.5184 30.5543C41.3895 30.6832 41.2905 30.839 41.2284 31.0105C41.1604 31.1732 41.1245 31.3477 41.1227 31.5241C41.1248 31.6158 41.134 31.7073 41.15 31.7977C41.1647 31.8843 41.1924 31.9681 41.2321 32.0464C41.2623 32.1345 41.3041 32.2182 41.3565 32.2951L41.5206 32.5004C41.6539 32.6209 41.8065 32.718 41.9721 32.7876C42.1348 32.8644 42.3133 32.9019 42.4932 32.8971C42.5849 32.8946 42.6764 32.8854 42.7668 32.8697C42.8533 32.8547 42.9371 32.8271 43.0155 32.7876C43.1036 32.7575 43.1873 32.7157 43.2643 32.6633L43.4695 32.4991L43.6336 32.2939C43.686 32.2169 43.7278 32.1333 43.758 32.0452C43.7974 31.9667 43.8251 31.8829 43.8401 31.7964C43.8558 31.706 43.8649 31.6146 43.8674 31.5228C43.8654 31.3437 43.8282 31.1666 43.758 31.0017C43.687 30.8368 43.5886 30.685 43.467 30.5528Z" fill="white"/>
<path d="M46.6021 19.1855C46.782 19.1903 46.9605 19.1529 47.1232 19.0761C47.2892 19.0065 47.4423 18.9094 47.5759 18.7888C47.826 18.5261 47.9681 18.1789 47.9739 17.8163C47.9787 17.6364 47.9412 17.4579 47.8644 17.2952C47.8024 17.1237 47.7034 16.968 47.5744 16.839C47.4455 16.7101 47.2897 16.611 47.1182 16.549C46.8677 16.4509 46.5944 16.4259 46.3302 16.477C46.0661 16.5281 45.8218 16.6531 45.6259 16.8375C45.5047 16.9705 45.4071 17.1232 45.3373 17.289C45.2475 17.497 45.2111 17.7242 45.2315 17.9499C45.2519 18.1756 45.3284 18.3925 45.4542 18.5811C45.5799 18.7696 45.7508 18.9237 45.9513 19.0292C46.1518 19.1348 46.3755 19.1886 46.6021 19.1855Z" fill="white"/>
<path d="M46.6022 24.6704C46.9158 24.6674 47.2187 24.5559 47.4595 24.3549C47.7002 24.1539 47.8639 23.8757 47.9229 23.5677C47.9818 23.2597 47.9324 22.9408 47.7829 22.6651C47.6334 22.3894 47.3931 22.1739 47.1028 22.0553C46.8125 21.9366 46.4901 21.9221 46.1903 22.0142C45.8905 22.1063 45.6318 22.2993 45.4582 22.5604C45.2845 22.8216 45.2066 23.1348 45.2376 23.4468C45.2687 23.7589 45.4068 24.0506 45.6285 24.2725C45.8915 24.5228 46.2392 24.6649 46.6022 24.6704Z" fill="white"/>
<path d="M46.6022 30.15C46.9653 30.1445 47.313 30.0024 47.576 29.752C47.6348 29.687 47.6896 29.6184 47.7402 29.5468C47.7926 29.4698 47.8344 29.3862 47.8645 29.2981C47.9039 29.2196 47.9316 29.1358 47.9466 29.0493C47.9623 28.9589 47.9715 28.8675 47.974 28.7757C47.974 28.4129 47.8298 28.065 47.5733 27.8084C47.3167 27.5518 46.9688 27.4077 46.6059 27.4077C46.2431 27.4077 45.8952 27.5518 45.6386 27.8084C45.382 28.065 45.2379 28.4129 45.2379 28.7757C45.2404 29.1394 45.3829 29.4882 45.6359 29.7495C45.8966 29.9992 46.2413 30.1421 46.6022 30.15Z" fill="white"/>
<path d="M38.9015 27.5233C38.5675 27.3868 38.1933 27.3868 37.8593 27.5233C37.6918 27.5897 37.5385 27.6877 37.4079 27.8119C37.1576 28.074 37.0155 28.4208 37.0099 28.7831C37.012 28.8749 37.0212 28.9664 37.0372 29.0568C37.0519 29.1433 37.0796 29.2272 37.1193 29.3055C37.1495 29.3936 37.1913 29.4772 37.2437 29.5542L37.4079 29.7594C37.5411 29.8799 37.6937 29.9771 37.8593 30.0467C38.022 30.1235 38.2005 30.161 38.3804 30.1561C38.7435 30.1507 39.0912 30.0086 39.3542 29.7582C39.6068 29.4966 39.7493 29.148 39.7521 28.7844C39.7468 28.4213 39.6047 28.0735 39.3542 27.8106C39.2207 27.6898 39.0676 27.5927 38.9015 27.5233Z" fill="white"/>
<path d="M45.3436 34.7888C45.3738 34.8769 45.4156 34.9605 45.468 35.0375L45.6321 35.2427C45.7654 35.3633 45.918 35.4604 46.0836 35.53C46.2478 35.6024 46.4253 35.6397 46.6047 35.6397C46.7841 35.6397 46.9616 35.6024 47.1258 35.53C47.2918 35.4605 47.4448 35.3633 47.5785 35.2427L47.7426 35.0375C47.795 34.9605 47.8368 34.8769 47.867 34.7888C47.9064 34.7104 47.9341 34.6266 47.9491 34.5401C47.9648 34.4496 47.9739 34.3582 47.9764 34.2665C47.9744 34.0873 47.9372 33.9102 47.867 33.7454C47.8049 33.5739 47.7059 33.4182 47.577 33.2892C47.448 33.1602 47.2923 33.0612 47.1208 32.9992C46.9572 32.9247 46.7795 32.8862 46.5997 32.8862C46.4199 32.8862 46.2423 32.9247 46.0786 32.9992C45.9071 33.0612 45.7514 33.1602 45.6224 33.2892C45.4935 33.4182 45.3945 33.5739 45.3324 33.7454C45.2662 33.9106 45.2328 34.0872 45.2342 34.2652C45.2363 34.357 45.2455 34.4484 45.2615 34.5388C45.2761 34.6258 45.3037 34.7101 45.3436 34.7888Z" fill="white"/>
<path d="M20.1647 68.9331C19.8996 68.6885 19.5522 68.5527 19.1915 68.5527C18.8309 68.5527 18.4834 68.6885 18.2184 68.9331C18.0942 69.0637 17.9962 69.217 17.9298 69.3845C17.8424 69.5925 17.8077 69.8188 17.8289 70.0434C17.8501 70.268 17.9266 70.4839 18.0514 70.6718C18.1762 70.8597 18.3456 71.0138 18.5444 71.1204C18.7432 71.227 18.9653 71.2828 19.1909 71.2828C19.4165 71.2828 19.6386 71.227 19.8374 71.1204C20.0362 71.0138 20.2056 70.8597 20.3304 70.6718C20.4552 70.4839 20.5316 70.268 20.5529 70.0434C20.5741 69.8188 20.5394 69.5925 20.452 69.3845C20.3857 69.2172 20.2882 69.064 20.1647 68.9331Z" fill="white"/>
<path d="M22.3298 66.192C22.1401 66.384 22.0115 66.6277 21.96 66.8927C21.9086 67.1576 21.9366 67.4318 22.0407 67.6808C22.1447 67.9298 22.32 68.1425 22.5446 68.2921C22.7693 68.4417 23.0331 68.5215 23.303 68.5215C23.5728 68.5215 23.8367 68.4417 24.0613 68.2921C24.2859 68.1425 24.4612 67.9298 24.5653 67.6808C24.6693 67.4318 24.6973 67.1576 24.6459 66.8927C24.5944 66.6277 24.4658 66.384 24.2761 66.192C24.0106 65.9482 23.6634 65.813 23.303 65.813C22.9426 65.813 22.5953 65.9482 22.3298 66.192Z" fill="white"/>
<path d="M23.8235 60.4203C23.573 60.3222 23.2997 60.2973 23.0355 60.3484C22.7713 60.3994 22.5271 60.5244 22.3311 60.7088C22.0841 60.9692 21.9484 61.3157 21.9531 61.6746C21.9578 62.0334 22.1025 62.3763 22.3562 62.6301C22.61 62.8838 22.9529 63.0285 23.3117 63.0332C23.6706 63.0379 24.0171 62.9022 24.2775 62.6552C24.3981 62.5216 24.4952 62.3685 24.5647 62.2025C24.633 62.0368 24.6681 61.8593 24.668 61.6801C24.6626 61.317 24.5205 60.9693 24.27 60.7064C24.1388 60.5823 23.9852 60.4843 23.8173 60.4178L23.8235 60.4203Z" fill="white"/>
<path d="M24.2761 55.2256C24.145 55.1015 23.9913 55.0036 23.8234 54.9371C23.6581 54.8639 23.4795 54.8252 23.2986 54.8233C23.1178 54.8215 22.9385 54.8565 22.7717 54.9264C22.6048 54.9962 22.454 55.0994 22.3284 55.2295C22.2028 55.3597 22.1051 55.5141 22.0413 55.6833C21.9342 55.9326 21.9043 56.2083 21.9555 56.4748C22.0067 56.7413 22.1367 56.9863 22.3286 57.1782C22.5204 57.37 22.7654 57.5 23.0319 57.5512C23.2984 57.6024 23.5741 57.5725 23.8234 57.4655C23.9927 57.4023 24.1469 57.3045 24.2761 57.1782C24.5262 56.9155 24.6683 56.5683 24.6741 56.2056C24.6721 56.0264 24.6349 55.8494 24.5647 55.6845C24.4989 55.5144 24.4009 55.3586 24.2761 55.2256Z" fill="white"/>
<path d="M24.2761 49.7436C24.1183 49.5793 23.9216 49.4576 23.7043 49.3896C23.487 49.3216 23.256 49.3096 23.0328 49.3546C22.8096 49.3996 22.6013 49.5002 22.4273 49.6471C22.2534 49.794 22.1193 49.9825 22.0375 50.195C21.969 50.359 21.9331 50.5347 21.9318 50.7124C21.9369 51.0755 22.079 51.4233 22.3297 51.6861C22.4629 51.8067 22.6156 51.9038 22.7812 51.9734C22.9439 52.0502 23.1224 52.0877 23.3023 52.0829C23.4823 52.0842 23.6608 52.0497 23.8274 51.9814C23.9939 51.9132 24.1453 51.8124 24.2726 51.6851C24.3999 51.5578 24.5006 51.4065 24.5689 51.2399C24.6371 51.0734 24.6716 50.8949 24.6703 50.7149C24.6751 50.535 24.6376 50.3565 24.5609 50.1938C24.4919 50.0288 24.3956 49.8766 24.2761 49.7436Z" fill="white"/>
<path d="M18.2183 63.4501C17.9683 63.7119 17.8262 64.0583 17.8203 64.4202C17.8231 64.5119 17.8323 64.6033 17.8477 64.6938C17.8623 64.7804 17.89 64.8642 17.9298 64.9425C17.9599 65.0306 18.0017 65.1143 18.0541 65.1913L18.2183 65.3965C18.4782 65.6511 18.8276 65.7938 19.1914 65.7938C19.5553 65.7938 19.9047 65.6511 20.1646 65.3965L20.3288 65.1913C20.3812 65.1143 20.423 65.0306 20.4531 64.9425C20.4926 64.8641 20.5202 64.7803 20.5352 64.6938C20.5503 64.6033 20.5594 64.5119 20.5626 64.4202C20.5657 64.1472 20.487 63.8796 20.3368 63.6517C20.1865 63.4237 19.9715 63.246 19.7194 63.1413C19.4673 63.0366 19.1897 63.0097 18.9221 63.064C18.6546 63.1184 18.4095 63.2516 18.2183 63.4464V63.4501Z" fill="white"/>
<path d="M20.1646 57.9667C20.0013 57.811 19.8035 57.6961 19.5874 57.6313C19.3713 57.5664 19.143 57.5535 18.9209 57.5936C18.8344 57.6082 18.7505 57.6359 18.6722 57.6756C18.5842 57.7059 18.5005 57.7477 18.4235 57.8C18.3516 57.8502 18.2831 57.9051 18.2183 57.9642C18.0941 58.0948 17.9962 58.2481 17.9298 58.4156C17.8593 58.5808 17.8221 58.7583 17.8203 58.9379C17.8254 59.3011 17.9676 59.6489 18.2183 59.9117L18.4235 60.0759C18.5005 60.1282 18.5842 60.17 18.6722 60.2003C18.7506 60.2397 18.8345 60.2673 18.9209 60.2823C19.0119 60.2974 19.1037 60.3066 19.1958 60.3097C19.3758 60.311 19.5543 60.2765 19.7209 60.2083C19.8874 60.14 20.0388 60.0393 20.1661 59.912C20.2934 59.7847 20.3941 59.6333 20.4624 59.4668C20.5307 59.3002 20.5651 59.1217 20.5638 58.9417C20.5686 58.7618 20.5311 58.5833 20.4544 58.4206C20.3881 58.2532 20.2906 58.1 20.1671 57.9691L20.1646 57.9667Z" fill="white"/>
<path d="M18.9172 52.1141C18.8306 52.1288 18.7468 52.1565 18.6685 52.1962C18.5804 52.2264 18.4968 52.2683 18.4198 52.3206L18.2146 52.4847C18.0934 52.6177 17.9958 52.7704 17.926 52.9362C17.8574 53.1005 17.8215 53.2767 17.8203 53.4548C17.8254 53.8179 17.9676 54.1658 18.2183 54.4286L18.4235 54.5927C18.5005 54.645 18.5842 54.6868 18.6722 54.7171C18.7506 54.7565 18.8345 54.7842 18.9209 54.7992C19.0119 54.8143 19.1037 54.8234 19.1958 54.8265C19.3845 54.8224 19.5703 54.7792 19.7415 54.6997C19.9127 54.6203 20.0656 54.5063 20.1906 54.3649C20.3156 54.2235 20.4099 54.0577 20.4678 53.8781C20.5256 53.6984 20.5457 53.5088 20.5266 53.321C20.5076 53.1332 20.45 52.9514 20.3573 52.787C20.2646 52.6226 20.1389 52.4792 19.9881 52.3657C19.8373 52.2522 19.6646 52.1712 19.481 52.1277C19.2973 52.0842 19.1066 52.0791 18.9209 52.1129L18.9172 52.1141Z" fill="white"/>
<path d="M26.894 54.7197C27.0582 54.7921 27.2356 54.8294 27.4151 54.8294C27.5945 54.8294 27.772 54.7921 27.9362 54.7197C28.1038 54.6534 28.2574 54.5559 28.3888 54.4324C28.6389 54.1697 28.781 53.8226 28.7868 53.4599C28.7848 53.2807 28.7476 53.1037 28.6774 52.9388C28.6111 52.7715 28.5136 52.6183 28.3901 52.4874C28.1958 52.3001 27.9515 52.1733 27.6866 52.122C27.4218 52.0708 27.1477 52.0975 26.8977 52.1988C26.7319 52.2686 26.5792 52.3662 26.4463 52.4874C26.3221 52.618 26.2241 52.7713 26.1577 52.9388C26.0867 53.1022 26.0482 53.278 26.0446 53.4562C26.0497 53.8193 26.1918 54.1671 26.4425 54.4299C26.5734 54.5535 26.7266 54.651 26.894 54.7172V54.7197Z" fill="white"/>
<path d="M19.9582 46.8372C19.8812 46.7848 19.7976 46.743 19.7095 46.7129C19.6312 46.6731 19.5473 46.6454 19.4607 46.6308C19.1937 46.575 18.916 46.6037 18.666 46.7129C18.4985 46.7793 18.3452 46.8772 18.2146 47.0014C17.9599 47.2613 17.8173 47.6107 17.8173 47.9745C17.8173 48.3384 17.9599 48.6878 18.2146 48.9477C18.3455 49.0712 18.4987 49.1687 18.666 49.235C18.8309 49.3053 19.0079 49.3424 19.1871 49.3444C19.2789 49.3419 19.3703 49.3328 19.4607 49.3171C19.5472 49.3021 19.631 49.2744 19.7095 49.235C19.7976 49.2049 19.8812 49.163 19.9582 49.1106C20.0298 49.0601 20.0984 49.0053 20.1634 48.9465L20.3276 48.7413C20.38 48.6643 20.4218 48.5806 20.4519 48.4925C20.4914 48.4141 20.519 48.3303 20.534 48.2438C20.5491 48.1533 20.5582 48.0619 20.5614 47.9702C20.556 47.6071 20.4139 47.2593 20.1634 46.9964C20.0982 46.9393 20.0297 46.8862 19.9582 46.8372Z" fill="white"/>
<path d="M47.372 68.7691C47.295 68.7167 47.2113 68.6749 47.1232 68.6447C47.0449 68.605 46.9611 68.5773 46.8745 68.5626C46.6525 68.5225 46.4241 68.5354 46.208 68.6002C45.9919 68.6651 45.7941 68.78 45.6309 68.9357C45.5067 69.0664 45.4087 69.2196 45.3423 69.3872C45.273 69.551 45.2362 69.7267 45.2341 69.9045C45.2392 70.2677 45.3814 70.6155 45.6321 70.8783C45.763 71.0019 45.9162 71.0993 46.0835 71.1656C46.2484 71.2359 46.4255 71.2731 46.6046 71.2751C46.9683 71.2722 47.3169 71.1297 47.5784 70.8771C47.8331 70.6172 47.9758 70.2678 47.9758 69.9039C47.9758 69.54 47.8331 69.1907 47.5784 68.9308C47.5129 68.8728 47.444 68.8188 47.372 68.7691Z" fill="white"/>
<path d="M41.5206 66.192C41.3309 66.384 41.2023 66.6277 41.1508 66.8927C41.0994 67.1576 41.1274 67.4318 41.2315 67.6808C41.3355 67.9298 41.5108 68.1425 41.7354 68.2921C41.9601 68.4417 42.2239 68.5215 42.4938 68.5215C42.7636 68.5215 43.0275 68.4417 43.2521 68.2921C43.4767 68.1425 43.652 67.9298 43.7561 67.6808C43.8601 67.4318 43.8881 67.1576 43.8367 66.8927C43.7852 66.6277 43.6566 66.384 43.4669 66.192C43.2014 65.9482 42.8542 65.813 42.4938 65.813C42.1334 65.813 41.7861 65.9482 41.5206 66.192Z" fill="white"/>
<path d="M43.2605 60.5435C43.1836 60.4911 43.0999 60.4493 43.0118 60.4192C42.9335 60.3794 42.8496 60.3517 42.7631 60.3371C42.4961 60.2813 42.2183 60.31 41.9684 60.4192C41.8026 60.4889 41.6499 60.5865 41.5169 60.7077C41.2681 60.9704 41.1273 61.3172 41.1227 61.679C41.1247 61.8582 41.1619 62.0352 41.2321 62.2001C41.3019 62.3663 41.3994 62.5194 41.5206 62.6528C41.7836 62.9033 42.1313 63.0454 42.4944 63.0507C42.5861 63.0476 42.6775 63.0385 42.768 63.0234C42.8545 63.0084 42.9383 62.9807 43.0168 62.9413C43.1049 62.9111 43.1885 62.8693 43.2655 62.8169L43.4707 62.6528C43.7254 62.3929 43.868 62.0435 43.868 61.6796C43.868 61.3157 43.7254 60.9663 43.4707 60.7064L43.2605 60.5435Z" fill="white"/>
<path d="M43.4669 55.2256C43.3358 55.1015 43.1821 55.0036 43.0142 54.9371C42.8489 54.8639 42.6703 54.8252 42.4894 54.8233C42.3086 54.8215 42.1293 54.8565 41.9625 54.9264C41.7956 54.9962 41.6448 55.0994 41.5192 55.2295C41.3936 55.3597 41.2959 55.5141 41.2321 55.6833C41.125 55.9326 41.0951 56.2083 41.1463 56.4748C41.1975 56.7413 41.3275 56.9863 41.5194 57.1782C41.7112 57.37 41.9562 57.5 42.2227 57.5512C42.4892 57.6024 42.7649 57.5725 43.0142 57.4655C43.1835 57.4024 43.3377 57.3045 43.4669 57.1782C43.717 56.9155 43.8591 56.5683 43.8649 56.2056C43.8629 56.0264 43.8257 55.8494 43.7554 55.6845C43.6897 55.5144 43.5917 55.3586 43.4669 55.2256Z" fill="white"/>
<path d="M43.467 49.7436C43.3358 49.6195 43.1822 49.5216 43.0143 49.455C42.7642 49.3542 42.4903 49.3278 42.2255 49.379C41.9608 49.4301 41.7164 49.5568 41.5219 49.7436C41.4008 49.8765 41.3032 50.0292 41.2334 50.195C41.146 50.403 41.1113 50.6293 41.1325 50.8539C41.1537 51.0785 41.2302 51.2944 41.355 51.4823C41.4798 51.6702 41.6492 51.8243 41.848 51.9309C42.0468 52.0375 42.2689 52.0933 42.4945 52.0933C42.7201 52.0933 42.9422 52.0375 43.141 51.9309C43.3398 51.8243 43.5092 51.6702 43.634 51.4823C43.7588 51.2944 43.8352 51.0785 43.8564 50.8539C43.8777 50.6293 43.843 50.403 43.7556 50.195C43.6889 50.0276 43.591 49.8744 43.467 49.7436Z" fill="white"/>
<path d="M46.331 63.0809C46.2445 63.0955 46.1606 63.1232 46.0823 63.1629C45.9942 63.1932 45.9106 63.235 45.8336 63.2873C45.7617 63.3375 45.6932 63.3924 45.6284 63.4515C45.3798 63.7138 45.2391 64.0601 45.2341 64.4215C45.2369 64.5132 45.2461 64.6047 45.2615 64.6951C45.2762 64.7817 45.3038 64.8656 45.3436 64.9439C45.3737 65.032 45.4155 65.1156 45.4679 65.1926L45.6321 65.3978L45.8373 65.562C45.9143 65.6143 45.998 65.6561 46.086 65.6863C46.1645 65.7257 46.2483 65.7534 46.3348 65.7684C46.4257 65.7835 46.5175 65.7926 46.6096 65.7958C46.9727 65.7903 47.3204 65.6482 47.5834 65.3978C47.6422 65.3328 47.697 65.2642 47.7476 65.1926C47.8 65.1156 47.8418 65.032 47.8719 64.9439C47.9113 64.8654 47.939 64.7816 47.954 64.6951C47.9691 64.6046 47.9782 64.5132 47.9814 64.4215C47.976 64.0584 47.8339 63.7107 47.5834 63.4477C47.4204 63.2891 47.2211 63.1727 47.0028 63.1087C46.7845 63.0448 46.5539 63.0352 46.331 63.0809Z" fill="white"/>
<path d="M47.5784 57.9667C47.4151 57.811 47.2173 57.6961 47.0012 57.6313C46.7851 57.5664 46.5568 57.5535 46.3348 57.5936C46.2482 57.6082 46.1643 57.6359 46.086 57.6756C45.998 57.7059 45.9143 57.7477 45.8373 57.8C45.7654 57.8502 45.6969 57.9051 45.6321 57.9642C45.5079 58.0948 45.41 58.2481 45.3436 58.4156C45.2732 58.5808 45.236 58.7583 45.2341 58.9379C45.2392 59.3011 45.3814 59.6489 45.6321 59.9117L45.8373 60.0759C45.9143 60.1282 45.998 60.17 46.086 60.2003C46.1645 60.2397 46.2483 60.2673 46.3348 60.2823C46.4257 60.2974 46.5175 60.3066 46.6096 60.3097C46.7896 60.311 46.9681 60.2765 47.1347 60.2083C47.3013 60.14 47.4526 60.0393 47.5799 59.912C47.7072 59.7847 47.8079 59.6333 47.8762 59.4668C47.9445 59.3002 47.979 59.1217 47.9776 58.9417C47.9825 58.7618 47.945 58.5833 47.8682 58.4206C47.8015 58.2522 47.7031 58.0981 47.5784 57.9667Z" fill="white"/>
<path d="M47.5785 52.4847C47.4473 52.3606 47.2937 52.2627 47.1258 52.1961C46.9604 52.1229 46.7819 52.0842 46.601 52.0823C46.4202 52.0805 46.2408 52.1156 46.074 52.1854C45.9072 52.2553 45.7564 52.3584 45.6308 52.4886C45.5052 52.6187 45.4075 52.7731 45.3436 52.9423C45.2366 53.1917 45.2067 53.4674 45.2579 53.7339C45.3091 54.0003 45.439 54.2453 45.6309 54.4372C45.8228 54.6291 46.0678 54.759 46.3343 54.8102C46.6008 54.8614 46.8765 54.8316 47.1258 54.7245C47.2951 54.6614 47.4493 54.5635 47.5785 54.4372C47.8286 54.1745 47.9707 53.8273 47.9765 53.4647C47.9745 53.2855 47.9373 53.1084 47.867 52.9436C47.8008 52.7762 47.7033 52.623 47.5797 52.4921L47.5785 52.4847Z" fill="white"/>
<path d="M39.3542 52.4848C39.1964 52.3206 38.9998 52.1988 38.7824 52.1308C38.5651 52.0628 38.3341 52.0508 38.1109 52.0958C37.8877 52.1408 37.6795 52.2414 37.5055 52.3883C37.3315 52.5353 37.1974 52.7237 37.1156 52.9362C37.0471 53.1002 37.0112 53.2759 37.0099 53.4536C37.015 53.8167 37.1572 54.1646 37.4079 54.4274C37.5365 54.5537 37.6903 54.6516 37.8593 54.7146C38.1086 54.8217 38.3843 54.8516 38.6508 54.8004C38.9173 54.7492 39.1623 54.6192 39.3542 54.4274C39.5461 54.2355 39.676 53.9905 39.7272 53.724C39.7784 53.4575 39.7485 53.1818 39.6415 52.9325C39.5718 52.7669 39.4747 52.6142 39.3542 52.481V52.4848Z" fill="white"/>
<path d="M47.1257 46.7138C46.8758 46.6047 46.598 46.576 46.331 46.6318C46.2445 46.6464 46.1606 46.6741 46.0823 46.7138C45.9942 46.7441 45.9106 46.7859 45.8336 46.8382C45.7617 46.8884 45.6932 46.9433 45.6284 47.0024C45.3798 47.2647 45.2391 47.611 45.2341 47.9724C45.2369 48.0641 45.2461 48.1556 45.2615 48.246C45.2762 48.3326 45.3038 48.4165 45.3436 48.4948C45.3737 48.5829 45.4155 48.6665 45.4679 48.7435L45.6321 48.9487C45.6969 49.0078 45.7654 49.0626 45.8373 49.1128C45.9143 49.1651 45.998 49.207 46.086 49.2372C46.1645 49.2766 46.2483 49.3043 46.3348 49.3193C46.4256 49.3351 46.5175 49.3442 46.6096 49.3467C46.7888 49.3447 46.9659 49.3075 47.1307 49.2372C47.2984 49.1709 47.452 49.0734 47.5834 48.9499C47.8381 48.69 47.9807 48.3407 47.9807 47.9768C47.9807 47.6129 47.8381 47.2635 47.5834 47.0036C47.4522 46.8795 47.2986 46.7816 47.1307 46.7151L47.1257 46.7138Z" fill="white"/>
</svg>
