<svg width="72" height="82" viewBox="0 0 72 82" fill="none" xmlns="http://www.w3.org/2000/svg">
<path d="M63.7866 15.6827C63.2726 12.0433 61.4609 8.71208 58.685 6.3028C55.9092 3.89352 52.3562 2.56842 48.6806 2.57158H45.9386V2.39981C45.9382 1.76322 45.6851 1.15283 45.2348 0.702813C44.7846 0.252798 44.1741 2.86029e-06 43.5375 2.94708e-06H28.1156C27.8 -0.000491387 27.4875 0.0612075 27.1959 0.181572C26.9042 0.301937 26.6391 0.478607 26.4158 0.701482C26.1924 0.924357 26.0152 1.18907 25.8942 1.48048C25.7733 1.77189 25.7109 2.08428 25.7107 2.39981V2.57032H22.9686C19.295 2.571 15.745 3.89744 12.971 6.3059C10.1969 8.71435 8.3853 12.043 7.86895 15.6802C5.63553 16.1915 3.64143 17.4449 2.21224 19.2358C0.783045 21.0266 0.00318866 23.249 0 25.5402V46.1091C0.000445054 48.387 0.770278 50.598 2.18468 52.3835C3.59909 54.1691 5.57514 55.4246 7.79246 55.9465C8.32964 63.0133 11.5161 69.6165 16.7139 74.4342C21.9118 79.2519 28.7375 81.9287 35.8246 81.9287C42.9118 81.9287 49.7375 79.2519 54.9354 74.4342C60.1332 69.6165 63.3197 63.0133 63.8568 55.9465C66.073 55.4222 68.0477 54.1661 69.4619 52.3811C70.876 50.5961 71.6471 48.3864 71.6505 46.1091V25.5402C71.6473 23.2501 70.868 21.0286 69.4398 19.2384C68.0116 17.4481 66.0188 16.1947 63.7866 15.6827ZM45.9386 7.37244H48.6806C51.0356 7.37398 53.3212 8.16924 55.1685 9.62978C57.0158 11.0903 58.3169 13.1309 58.8616 15.4219H45.9386V7.37244ZM30.5166 4.80086H41.1427V15.4219H30.5116L30.5166 4.80086ZM22.9686 7.37244H25.7107V15.4219H12.7964C13.3406 13.1322 14.6403 11.0926 16.4859 9.63223C18.3314 8.17181 20.6152 7.37573 22.9686 7.37244ZM35.824 77.1335C30.0579 77.1301 24.4974 74.9913 20.2154 71.1297C15.9333 67.2681 13.2332 61.9574 12.636 56.2223H24.4732C27.4374 56.2151 30.2791 55.0387 32.381 52.9486L32.4174 52.911C33.3282 52.0209 34.5511 51.5225 35.8246 51.5225C37.0982 51.5225 38.3211 52.0209 39.2319 52.911L39.2682 52.9486C41.37 55.0392 44.2117 56.216 47.1761 56.2236H59.0121C58.4111 61.9571 55.7098 67.2653 51.4285 71.126C47.1473 74.9866 41.5889 77.1265 35.824 77.1335ZM66.8484 46.1091C66.8474 47.5177 66.2874 48.8684 65.2914 49.8644C64.2953 50.8605 62.9446 51.4205 61.536 51.4215H47.1761C45.504 51.4173 43.8994 50.761 42.7037 49.5922L42.6648 49.552C40.8505 47.7388 38.3904 46.7203 35.8253 46.7203C33.2602 46.7203 30.8001 47.7388 28.9857 49.552L28.9456 49.5922C27.7499 50.761 26.1453 51.4173 24.4732 51.4215H10.1133C8.70464 51.4205 7.35399 50.8605 6.35793 49.8644C5.36187 48.8684 4.80186 47.5177 4.80086 46.1091V25.5402C4.80252 24.1318 5.36275 22.7815 6.35867 21.7856C7.35458 20.7897 8.70485 20.2295 10.1133 20.2278H61.536C62.9444 20.2295 64.2947 20.7897 65.2906 21.7856C66.2865 22.7815 66.8468 24.1318 66.8484 25.5402V46.1091Z" fill="white"/>
<path d="M63.7866 15.6827C63.2726 12.0433 61.4609 8.71208 58.685 6.3028C55.9092 3.89352 52.3562 2.56842 48.6806 2.57158H45.9386V2.39981C45.9382 1.76322 45.6851 1.15283 45.2348 0.702813C44.7846 0.252798 44.1741 2.86029e-06 43.5375 2.94708e-06H28.1156C27.8 -0.000491387 27.4875 0.0612075 27.1959 0.181572C26.9042 0.301937 26.6391 0.478607 26.4158 0.701482C26.1924 0.924357 26.0152 1.18907 25.8942 1.48048C25.7733 1.77189 25.7109 2.08428 25.7107 2.39981V2.57032H22.9686C19.295 2.571 15.745 3.89744 12.971 6.3059C10.1969 8.71435 8.3853 12.043 7.86895 15.6802C5.63553 16.1915 3.64143 17.4449 2.21224 19.2358C0.783045 21.0266 0.00318866 23.249 0 25.5402V46.1091C0.000445054 48.387 0.770278 50.598 2.18468 52.3835C3.59909 54.1691 5.57514 55.4246 7.79246 55.9465C8.32964 63.0133 11.5161 69.6165 16.7139 74.4342C21.9118 79.2519 28.7375 81.9287 35.8246 81.9287C42.9118 81.9287 49.7375 79.2519 54.9354 74.4342C60.1332 69.6165 63.3197 63.0133 63.8568 55.9465C66.073 55.4222 68.0477 54.1661 69.4619 52.3811C70.876 50.5961 71.6471 48.3864 71.6505 46.1091V25.5402C71.6473 23.2501 70.868 21.0286 69.4398 19.2384C68.0116 17.4481 66.0188 16.1947 63.7866 15.6827ZM45.9386 7.37244H48.6806C51.0356 7.37398 53.3212 8.16924 55.1685 9.62978C57.0158 11.0903 58.3169 13.1309 58.8616 15.4219H45.9386V7.37244ZM30.5166 4.80086H41.1427V15.4219H30.5116L30.5166 4.80086ZM22.9686 7.37244H25.7107V15.4219H12.7964C13.3406 13.1322 14.6403 11.0926 16.4859 9.63223C18.3314 8.17181 20.6152 7.37573 22.9686 7.37244ZM35.824 77.1335C30.0579 77.1301 24.4974 74.9913 20.2154 71.1297C15.9333 67.2681 13.2332 61.9574 12.636 56.2223H24.4732C27.4374 56.2151 30.2791 55.0387 32.381 52.9486L32.4174 52.911C33.3282 52.0209 34.5511 51.5225 35.8246 51.5225C37.0982 51.5225 38.3211 52.0209 39.2319 52.911L39.2682 52.9486C41.37 55.0392 44.2117 56.216 47.1761 56.2236H59.0121C58.4111 61.9571 55.7098 67.2653 51.4285 71.126C47.1473 74.9866 41.5889 77.1265 35.824 77.1335ZM66.8484 46.1091C66.8474 47.5177 66.2874 48.8684 65.2914 49.8644C64.2953 50.8605 62.9446 51.4205 61.536 51.4215H47.1761C45.504 51.4173 43.8994 50.761 42.7037 49.5922L42.6648 49.552C40.8505 47.7388 38.3904 46.7203 35.8253 46.7203C33.2602 46.7203 30.8001 47.7388 28.9857 49.552L28.9456 49.5922C27.7499 50.761 26.1453 51.4173 24.4732 51.4215H10.1133C8.70464 51.4205 7.35399 50.8605 6.35793 49.8644C5.36187 48.8684 4.80186 47.5177 4.80086 46.1091V25.5402C4.80252 24.1318 5.36275 22.7815 6.35867 21.7856C7.35458 20.7897 8.70485 20.2295 10.1133 20.2278H61.536C62.9444 20.2295 64.2947 20.7897 65.2906 21.7856C66.2865 22.7815 66.8468 24.1318 66.8484 25.5402V46.1091Z" stroke="white"/>
</svg>
