<svg width="83" height="83" viewBox="0 0 83 83" fill="none" xmlns="http://www.w3.org/2000/svg">
<path d="M76.6991 47.7413C78.1631 47.7396 79.5666 47.1572 80.6018 46.122C81.637 45.0868 82.2194 43.6832 82.2212 42.2192V40.978C82.2225 39.9774 81.9517 38.9953 81.4378 38.1368C80.9239 37.2783 80.1862 36.5758 79.3036 36.1044L71.612 32.0039V0H10.6092V32.0039L2.91757 36.103C2.03454 36.5742 1.29645 37.2769 0.782471 38.1357C0.268488 38.9946 -0.00199103 39.9771 4.6389e-05 40.978V42.2219C-0.00381052 43.161 0.232898 44.0855 0.687615 44.9072C1.14233 45.729 1.79991 46.4206 2.59767 46.9161C3.39544 47.4116 4.30682 47.6946 5.24496 47.7381C6.18311 47.7816 7.11675 47.5841 7.95693 47.1644V74.2643H6.63078C4.87285 74.2664 3.18752 74.9656 1.94447 76.2087C0.701421 77.4517 0.00215212 79.1371 4.6389e-05 80.895V82.2212H82.2212V80.895C82.219 79.1371 81.5198 77.4517 80.2767 76.2087C79.0337 74.9656 77.3484 74.2664 75.5904 74.2643H74.2643V47.1631C75.021 47.5395 75.8539 47.7374 76.6991 47.7413ZM13.2615 2.6523H68.9597V30.5889L63.6551 27.7603V7.95689H48.0265C48.1396 7.5073 48.109 7.03357 47.9389 6.6023C47.7688 6.17103 47.4678 5.80391 47.0783 5.55258C45.5492 4.66804 44.117 6.18913 42.7325 7.65983C42.237 8.22309 41.6944 8.74306 41.1106 9.21407C40.5244 8.74382 39.9804 8.22333 39.4847 7.6585C38.0963 6.18781 36.6587 4.66804 35.1429 5.55125C34.7538 5.80327 34.4533 6.17073 34.2835 6.60213C34.1137 7.03353 34.0831 7.50724 34.1961 7.95689H18.5661V27.7603L13.2615 30.5889V2.6523ZM34.8286 10.6092C35.0373 11.2418 35.1969 11.8895 35.3061 12.5467C34.6627 12.7774 34.0037 12.9617 33.3341 13.0984C31.2892 13.5758 29.1753 14.0691 29.1753 15.9138C29.1753 17.7584 31.2892 18.2518 33.3327 18.7279C33.7518 18.826 34.3353 18.9639 34.7915 19.1032L21.2184 26.3466V10.6092H34.8286ZM37.3284 22.1175C37.835 20.428 38.2726 18.9679 37.6626 17.9096C37.0672 16.8779 35.6164 16.5384 33.9348 16.1458C33.6603 16.0809 33.3168 16.0013 32.9787 15.9138C33.3168 15.8262 33.6603 15.7454 33.9361 15.6817C35.6164 15.2839 37.0658 14.9497 37.6626 13.9166C38.2726 12.8557 37.835 11.3969 37.3284 9.70873C37.2688 9.51113 37.1958 9.27508 37.1295 9.02974C37.2833 9.1902 37.4292 9.34404 37.5539 9.47798C38.7872 10.7869 39.8521 11.9194 41.1106 11.9194C42.3691 11.9194 43.434 10.7869 44.6686 9.47665L45.089 9.02974C45.0188 9.27508 44.9564 9.5098 44.8901 9.71005C44.3862 11.4049 43.9486 12.8636 44.5586 13.9179C45.154 14.9497 46.6048 15.2892 48.2864 15.6817C48.5609 15.7467 48.9044 15.8262 49.2425 15.9138C48.9044 16.0013 48.5609 16.0822 48.2851 16.1458C46.6048 16.5437 45.1553 16.8779 44.5586 17.9109C43.9486 18.9719 44.3862 20.4306 44.8928 22.1188C44.9524 22.3164 45.0254 22.5525 45.0917 22.7978C44.9379 22.6373 44.792 22.4835 44.6673 22.3496C43.434 21.0407 42.3691 19.9081 41.1106 19.9081C39.8521 19.9081 38.7872 21.0407 37.5525 22.3509L37.1322 22.7978C37.1998 22.5525 37.2648 22.3164 37.3284 22.1175ZM47.4244 19.0965C47.8872 18.9639 48.4681 18.8207 48.8831 18.7226C50.932 18.2518 53.0459 17.7584 53.0459 15.9138C53.0459 14.0691 50.932 13.5758 48.8885 13.0997C48.2184 12.9625 47.5589 12.7777 46.9151 12.5467C47.0237 11.8894 47.1833 11.2416 47.3926 10.6092H61.0028V26.3452L47.4244 19.0965ZM5.52212 45.089C4.76133 45.088 4.032 44.7853 3.49404 44.2473C2.95608 43.7094 2.65339 42.98 2.65234 42.2192V40.978C2.65176 40.4577 2.79294 39.9472 3.0607 39.5011C3.32846 39.0551 3.71269 38.6904 4.1721 38.4463L34.5289 22.2554C34.0648 23.925 33.8221 25.5111 35.139 26.2763C35.419 26.4463 35.7397 26.5379 36.0673 26.5415C37.2515 26.5415 38.3827 25.3414 39.4834 24.173C39.98 23.6074 40.5244 23.0856 41.1106 22.6135C41.6968 23.0837 42.2408 23.6042 42.7365 24.169C44.1236 25.6384 45.5598 27.1542 47.0836 26.2763C48.4004 25.5111 48.1564 23.9237 47.6923 22.2541L78.0504 38.4437C78.5098 38.6884 78.8939 39.0536 79.1614 39.5001C79.4289 39.9466 79.5698 40.4575 79.5689 40.978V42.2219C79.5688 42.7238 79.4372 43.217 79.187 43.6521C78.9368 44.0872 78.5769 44.4492 78.1432 44.7017C77.7094 44.9543 77.217 45.0887 76.7151 45.0915C76.2132 45.0943 75.7193 44.9654 75.2828 44.7177L41.1106 25.3042L6.93977 44.7137C6.50754 44.9591 6.01915 45.0884 5.52212 45.089ZM79.3421 79.5689H2.87911C3.1544 78.7937 3.66273 78.1227 4.33441 77.6479C5.00608 77.173 5.80821 76.9176 6.63078 76.9166H75.5904C76.413 76.9176 77.2151 77.173 77.8868 77.6479C78.5585 78.1227 79.0668 78.7937 79.3421 79.5689ZM18.5661 66.3074H21.2184V63.6551H18.5661V54.3721C18.5661 53.3169 18.9853 52.305 19.7314 51.5589C20.4775 50.8128 21.4894 50.3936 22.5445 50.3936H30.5014C31.5566 50.3936 32.5685 50.8128 33.3146 51.5589C34.0607 52.305 34.4799 53.3169 34.4799 54.3721V74.2643H18.5661V66.3074ZM37.1322 74.2643V54.3721C37.1301 52.6141 36.4308 50.9288 35.1877 49.6857C33.9447 48.4427 32.2594 47.7434 30.5014 47.7413H22.5445C20.7866 47.7434 19.1013 48.4427 17.8582 49.6857C16.6152 50.9288 15.9159 52.6141 15.9138 54.3721V74.2643H10.6092V45.6792L41.1106 28.3544L71.612 45.6792V74.2643H37.1322Z" fill="white"/>
</svg>
