<svg width="27" height="27" viewBox="0 0 27 27" fill="none" xmlns="http://www.w3.org/2000/svg">
<path fill-rule="evenodd" clip-rule="evenodd" d="M2.21153 13.2691C2.21153 8.63443 2.21153 6.31708 3.37304 4.7184C3.74816 4.2021 4.20221 3.74805 4.71851 3.37293C6.31719 2.21143 8.63453 2.21143 13.2692 2.21143C17.9039 2.21143 20.2213 2.21143 21.8199 3.37293C22.3362 3.74805 22.7903 4.2021 23.1654 4.7184C24.3269 6.31708 24.3269 8.63443 24.3269 13.2691C24.3269 17.9038 24.3269 20.2212 23.1654 21.8198C22.7903 22.3361 22.3362 22.7902 21.8199 23.1653C20.2213 24.3268 17.9039 24.3268 13.2692 24.3268C8.63453 24.3268 6.31719 24.3268 4.71851 23.1653C4.20221 22.7902 3.74816 22.3361 3.37304 21.8198C2.21153 20.2212 2.21153 17.9038 2.21153 13.2691ZM13.2692 7.41535C10.0363 7.41535 7.41516 10.0365 7.41516 13.2694C7.41516 16.5023 10.0363 19.1235 13.2692 19.1235C16.5021 19.1235 19.1233 16.5023 19.1233 13.2694C19.1233 10.0365 16.5021 7.41535 13.2692 7.41535ZM13.2692 16.9282C11.2525 16.9282 9.61044 15.2861 9.61044 13.2694C9.61044 11.2512 11.2525 9.61063 13.2692 9.61063C15.286 9.61063 16.928 11.2512 16.928 13.2694C16.928 15.2861 15.286 16.9282 13.2692 16.9282ZM20.3424 6.97625C20.3424 7.40706 19.9932 7.75631 19.5624 7.75631C19.1316 7.75631 18.7823 7.40706 18.7823 6.97625C18.7823 6.54544 19.1316 6.1962 19.5624 6.1962C19.9932 6.1962 20.3424 6.54544 20.3424 6.97625Z" fill="white"/>
</svg>
