<svg width="49" height="47" viewBox="0 0 49 47" fill="none" xmlns="http://www.w3.org/2000/svg">
<path opacity="0.25" fill-rule="evenodd" clip-rule="evenodd" d="M24.2037 45.5192C37.0188 45.5192 47.4074 35.5532 47.4074 23.2596C47.4074 10.966 37.0188 1 24.2037 1C11.3887 1 1 10.966 1 23.2596C1 35.5532 11.3887 45.5192 24.2037 45.5192Z" stroke="white" stroke-width="1.7237"/>
<path d="M18.8782 18.765C19.9646 18.765 20.8453 17.9202 20.8453 16.8781C20.8453 15.836 19.9646 14.9912 18.8782 14.9912C17.7918 14.9912 16.9111 15.836 16.9111 16.8781C16.9111 17.9202 17.7918 18.765 18.8782 18.765Z" fill="white"/>
<path d="M20.5174 20.0264H17.239C17.058 20.0264 16.9111 20.1673 16.9111 20.3409V29.7764C16.9111 29.95 17.058 30.0909 17.239 30.0909H20.5174C20.6984 30.0909 20.8453 29.95 20.8453 29.7764V20.3409C20.8453 20.1673 20.6984 20.0264 20.5174 20.0264Z" fill="white"/>
<path d="M30.2877 19.5033C28.8865 19.0428 27.1339 19.4473 26.0828 20.1726C26.0467 20.0373 25.9182 19.9367 25.7654 19.9367H22.487C22.306 19.9367 22.1591 20.0776 22.1591 20.2512V29.6866C22.1591 29.8602 22.306 30.0011 22.487 30.0011H25.7654C25.9464 30.0011 26.0933 29.8602 26.0933 29.6866V22.9057C26.6231 22.4679 27.3056 22.3282 27.8643 22.556C28.4059 22.7755 28.716 23.3114 28.716 24.0254V29.6866C28.716 29.8602 28.8629 30.0011 29.0439 30.0011H32.3223C32.5033 30.0011 32.6502 29.8602 32.6502 29.6866V23.3919C32.6128 20.8073 31.3454 19.8505 30.2877 19.5033Z" fill="white"/>
</svg>
