<svg width="35" height="46" viewBox="0 0 35 46" fill="none" xmlns="http://www.w3.org/2000/svg">
<g clip-path="url(#clip0_47_30)">
<path d="M31.1516 6.5285C26.3447 0.444064 17.715 -1.68891 10.6149 1.41633C2.79864 4.83485 -1.3847 13.0091 0.414079 21.2817C1.18498 24.8274 2.6318 28.0947 4.49147 31.1964C7.57021 36.3349 11.4479 40.841 15.8029 44.9641C16.2133 45.353 16.6152 45.7575 17.1438 45.9987C17.3874 45.9987 17.6297 45.9987 17.8733 45.9987C18.3129 45.7935 18.6685 45.4778 19.0169 45.1513C23.1137 41.3091 26.7783 37.1103 29.7937 32.3835C31.8348 29.1834 33.5154 25.8153 34.4045 22.1111C35.7697 16.424 34.8332 11.1858 31.1516 6.5285ZM17.4519 26.8416C12.0763 26.7828 7.72488 22.4376 7.78334 17.1862C7.84179 11.8915 12.2699 7.58959 17.5859 7.66521C22.9517 7.74083 27.2739 12.056 27.2325 17.2966C27.1911 22.5852 22.7703 26.8992 17.4519 26.8416Z" fill="#7CB83C"/>
</g>
<defs>
<clipPath id="clip0_47_30">
<rect width="35" height="46" fill="white"/>
</clipPath>
</defs>
</svg>
