<svg width="126" height="77" viewBox="0 0 126 77" fill="none" xmlns="http://www.w3.org/2000/svg">
<path d="M105.019 34.6518C104.016 34.6525 103.014 34.7251 102.022 34.8693L100.742 30.0885C104.159 29.5159 107.657 29.6342 111.029 30.4361C111.493 30.5467 111.979 30.5199 112.429 30.3589C112.878 30.198 113.27 29.9098 113.559 29.5296C119.27 22.0017 119.598 17.5119 114.857 11.7405C108.732 4.29222 103.109 0.463965 97.6453 0.0397943C93.5521 -0.278717 89.6121 1.31231 85.5832 4.90168C85.3214 5.13501 85.1126 5.42164 84.9706 5.74233C84.8287 6.06301 84.757 6.41034 84.7603 6.76102C84.7637 7.11169 84.842 7.45761 84.99 7.77554C85.138 8.09347 85.3523 8.37606 85.6185 8.60437L89.6335 12.0467C89.4697 12.7603 89.3273 13.4326 89.1971 14.0573C88.9664 15.3872 88.6231 16.695 88.1711 17.9667L86.4607 16.9668C78.2085 12.134 71.6913 8.31649 65.0561 10.1525C60.6475 11.3776 56.7871 14.9976 52.9589 21.5056L34.3122 16.1705L33.1607 12.6087C31.9754 8.94125 29.4442 6.94291 25.1979 6.30283L4.10266 2.7303C3.66804 2.65662 3.2216 2.70111 2.81007 2.85913C2.39854 3.01714 2.03705 3.28287 1.76343 3.62849C1.48981 3.97412 1.31412 4.38694 1.25475 4.82375C1.19538 5.26055 1.25451 5.70529 1.42595 6.11141C6.67985 18.5655 8.67054 21.8547 16.1693 25.5819L34.2724 34.5752C38.9428 36.8967 40.6166 38.67 42.056 42.829L45.6086 53.0887H41.6624C41.0353 47.7949 38.4094 42.9407 34.3217 39.519C30.2341 36.0972 24.9936 34.3664 19.672 34.6805C14.3505 34.9946 9.35002 37.3299 5.69332 41.2089C2.03662 45.0878 0 50.2172 0 55.548C0 60.8788 2.03662 66.0082 5.69332 69.8871C9.35002 73.766 14.3505 76.1013 19.672 76.4155C24.9936 76.7296 30.2341 74.9987 34.3217 71.577C38.4094 68.1552 41.0353 63.301 41.6624 58.0072H47.3053L49.711 64.9593C49.8782 65.4427 50.1919 65.862 50.6086 66.1587C51.0252 66.4554 51.524 66.6148 52.0355 66.6147H78.0676C78.4546 66.6147 78.8361 66.5233 79.1811 66.3481C79.5261 66.1729 79.8249 65.9187 80.0532 65.6063C80.2815 65.2938 80.4329 64.9319 80.4949 64.55C80.557 64.168 80.5281 63.7768 80.4105 63.4081C78.3971 57.0876 78.8912 50.235 81.7904 44.2687C84.6896 38.3024 89.7719 33.6793 95.9854 31.3565L97.2671 36.1387C92.4416 38.0692 88.509 41.7292 86.2374 46.4039C83.9658 51.0786 83.5184 56.4321 84.9825 61.419C86.4467 66.4059 89.7172 70.6679 94.1553 73.3726C98.5935 76.0773 103.88 77.0305 108.984 76.046C114.087 75.0614 118.64 72.2099 121.753 68.0483C124.867 63.8867 126.317 58.7139 125.821 53.5403C125.325 48.3667 122.918 43.5637 119.071 40.0696C115.223 36.5754 110.211 34.641 105.014 34.6442L105.019 34.6518ZM20.9148 71.5394C17.8583 71.5393 14.8659 70.6629 12.2923 69.0141C9.71861 67.3653 7.67159 65.0133 6.39384 62.2367C5.11608 59.4601 4.66114 56.3753 5.08294 53.3481C5.50474 50.3208 6.7856 47.478 8.77372 45.1564C10.7618 42.8349 13.3738 41.132 16.3002 40.2495C19.2265 39.3671 22.3445 39.3421 25.2846 40.1776C28.2247 41.013 30.8637 42.6739 32.8887 44.9633C34.9138 47.2527 36.24 50.0747 36.7102 53.0948H31.709C31.1044 50.442 29.5437 48.1049 27.325 46.53C25.1064 44.955 22.3853 44.2526 19.6816 44.5568C16.9778 44.861 14.4809 46.1506 12.6677 48.1792C10.8546 50.2078 9.85225 52.8333 9.85225 55.5541C9.85225 58.2749 10.8546 60.9004 12.6677 62.929C14.4809 64.9576 16.9778 66.2472 19.6816 66.5514C22.3853 66.8556 25.1064 66.1532 27.325 64.5782C29.5437 63.0032 31.1044 60.6661 31.709 58.0134H36.7163C36.1249 61.7793 34.2092 65.2105 31.3137 67.69C28.4182 70.1695 24.733 71.5345 20.921 71.5394H20.9148ZM20.9148 58.0134H26.5485C25.9835 59.3079 24.99 60.3685 23.735 61.0167C22.48 61.6648 21.0401 61.8612 19.6575 61.5726C18.2748 61.284 17.0336 60.5281 16.1427 59.4321C15.2518 58.336 14.7654 56.9666 14.7654 55.5541C14.7654 54.1416 15.2518 52.7722 16.1427 51.6761C17.0336 50.5801 18.2748 49.8242 19.6575 49.5356C21.0401 49.247 22.48 49.4433 23.735 50.0915C24.99 50.7397 25.9835 51.8002 26.5485 53.0948H20.9148C20.2626 53.0948 19.6371 53.3539 19.1759 53.8151C18.7147 54.2763 18.4556 54.9018 18.4556 55.5541C18.4556 56.2063 18.7147 56.8319 19.1759 57.2931C19.6371 57.7543 20.2626 58.0134 20.9148 58.0134ZM66.3685 14.895C70.9991 13.6133 76.7262 16.9668 83.9784 21.2131L84.5634 21.5561C84.1484 21.7583 83.6906 21.9589 83.1852 22.1579L71.3666 26.7717L57.8728 22.9098C60.7241 18.3159 63.5187 15.6836 66.3685 14.895ZM79.4856 38.4632H71.4493C71.1264 38.4632 70.8066 38.5268 70.5082 38.6504C70.2098 38.774 69.9387 38.9552 69.7104 39.1835C69.482 39.4119 69.3008 39.683 69.1773 39.9814C69.0537 40.2798 68.9901 40.5995 68.9901 40.9225C68.9901 41.2455 69.0537 41.5652 69.1773 41.8636C69.3008 42.162 69.482 42.4331 69.7104 42.6615C69.9387 42.8898 70.2098 43.071 70.5082 43.1946C70.8066 43.3182 71.1264 43.3818 71.4493 43.3818H76.7951C76.1066 44.9715 75.5549 46.6169 75.1459 48.3003H65.9167C65.5938 48.3003 65.274 48.3639 64.9756 48.4875C64.6772 48.6111 64.4061 48.7922 64.1778 49.0206C63.9494 49.249 63.7682 49.5201 63.6447 49.8185C63.5211 50.1168 63.4575 50.4366 63.4575 50.7596C63.4575 51.0825 63.5211 51.4023 63.6447 51.7007C63.7682 51.9991 63.9494 52.2702 64.1778 52.4986C64.4061 52.7269 64.6772 52.9081 64.9756 53.0316C65.274 53.1552 65.5938 53.2189 65.9167 53.2189H74.3665C74.3083 53.9896 74.2787 54.768 74.2776 55.5541C74.2754 57.6188 74.4806 59.6785 74.8902 61.7023H53.7919L46.705 41.2211C44.6117 35.1694 41.4894 32.6688 36.4621 30.1712L18.3606 21.1779C13.2813 18.6543 11.4866 16.7631 7.74257 8.33639L24.4031 11.1586L24.4552 11.1662C27.1687 11.5674 27.9649 12.5138 28.4856 14.1232L30.0399 18.933C30.1639 19.3168 30.3805 19.6643 30.6705 19.9447C30.9605 20.2251 31.315 20.4298 31.7029 20.5409L70.8046 31.7301C71.3223 31.8783 71.8742 31.8525 72.3758 31.6566L84.9661 26.7411C92.1525 23.9358 93.0147 19.8273 94.0115 15.0695C94.229 14.0298 94.4556 12.9563 94.7603 11.7956C94.8782 11.3487 94.8677 10.8777 94.7301 10.4365C94.5925 9.9953 94.3334 9.60181 93.9824 9.30112L91.0929 6.81734C92.8702 5.49662 95.0508 4.83363 97.2625 4.9415C101.264 5.24776 105.904 8.59059 111.055 14.8613C112.297 16.0037 113.073 17.5643 113.236 19.2439L109.888 17.8657C109.589 17.7406 109.268 17.6759 108.944 17.6752C108.62 17.6746 108.299 17.738 108 17.8618C107.7 17.9856 107.428 18.1674 107.199 18.3967C106.97 18.6261 106.788 18.8984 106.665 19.1981C106.542 19.4978 106.479 19.8189 106.48 20.143C106.481 20.4671 106.546 20.7878 106.672 21.0866C106.797 21.3854 106.98 21.6565 107.211 21.8842C107.442 22.112 107.715 22.2919 108.015 22.4136L111.516 23.8546C111.234 24.314 110.914 24.7948 110.551 25.3109C104.655 24.237 98.5729 24.9097 93.0536 27.2464C87.5344 29.5831 82.8184 33.4819 79.4856 38.4632ZM105.023 71.5394C101.358 71.5395 97.8037 70.2797 94.9566 67.9712C92.1096 65.6627 90.1425 62.4457 89.3852 58.8594C88.6278 55.2731 89.1262 51.5355 90.7968 48.273C92.4673 45.0104 95.2086 42.4212 98.561 40.9393L99.8565 45.7721C97.469 47.0357 95.6265 49.1293 94.6765 51.658C93.7265 54.1867 93.7347 56.9756 94.6995 59.4986C95.6644 62.0217 97.5191 64.1044 99.914 65.354C102.309 66.6036 105.078 66.9335 107.7 66.2817C110.321 65.6298 112.613 64.0412 114.144 61.8155C115.675 59.5898 116.338 56.8809 116.009 54.1998C115.679 51.5187 114.38 49.0508 112.357 47.2616C110.333 45.4724 107.724 44.4856 105.023 44.4874C104.884 44.4874 104.744 44.4874 104.607 44.4981L103.311 39.6622C105.469 39.4319 107.651 39.6432 109.724 40.2835C111.797 40.9237 113.719 41.9794 115.371 43.3862C117.023 44.7931 118.371 46.5215 119.334 48.4664C120.296 50.4112 120.852 52.5316 120.969 54.6984C121.085 56.8653 120.759 59.0331 120.011 61.0698C119.262 63.1065 118.107 64.9695 116.615 66.5452C115.123 68.1208 113.326 69.3762 111.333 70.2348C109.34 71.0935 107.193 71.5373 105.023 71.5394ZM102.648 56.1911C102.721 56.5142 102.858 56.8192 103.052 57.0878C103.246 57.3565 103.492 57.5833 103.775 57.7545C104.059 57.9258 104.374 58.038 104.702 58.0845C105.03 58.1309 105.364 58.1107 105.684 58.0249C106.004 57.9392 106.303 57.7897 106.564 57.5854C106.824 57.3811 107.041 57.1263 107.201 56.8362C107.361 56.5461 107.46 56.2268 107.494 55.8972C107.527 55.5677 107.494 55.2348 107.395 54.9186L105.937 49.4764C107.337 49.6849 108.621 50.3689 109.575 51.4134C110.529 52.458 111.094 53.7992 111.176 55.2115C111.257 56.6239 110.849 58.0211 110.021 59.1681C109.193 60.3151 107.995 61.1419 106.629 61.5094C105.263 61.8769 103.812 61.7627 102.52 61.186C101.229 60.6093 100.175 59.6053 99.5366 58.3428C98.8982 57.0804 98.7141 55.6366 99.0153 54.2544C99.3165 52.8722 100.085 51.6359 101.19 50.7535L102.648 56.1911Z" fill="#FF8800"/>
</svg>
