<svg width="63" height="74" viewBox="0 0 63 74" fill="none" xmlns="http://www.w3.org/2000/svg">
<path d="M36.5079 73.0155C29.2873 73.0155 22.2289 70.8743 16.2252 66.8627C10.2215 62.8512 5.54221 57.1494 2.77902 50.4784C0.0158246 43.8075 -0.707157 36.4669 0.701496 29.3851C2.11015 22.3032 5.58717 15.7981 10.6929 10.6924C17.5396 3.84613 26.8255 0 36.5079 0C46.1903 0 55.4762 3.84613 62.3229 10.6924C62.6746 11.0452 62.8721 11.5231 62.8721 12.0214C62.8721 12.5196 62.6746 12.9975 62.3229 13.3504L39.1506 36.5086L62.3076 59.6656C62.6593 60.0185 62.8568 60.4964 62.8568 60.9946C62.8568 61.4928 62.6593 61.9707 62.3076 62.3236C58.9287 65.7243 54.9083 68.4205 50.4796 70.2559C46.0509 72.0913 41.3019 73.0293 36.5079 73.0155ZM36.5079 3.75502C27.8211 3.75502 19.4901 7.20583 13.3476 13.3483C7.20516 19.4908 3.75435 27.8218 3.75435 36.5086C3.75435 45.1954 7.20516 53.5264 13.3476 59.6688C19.4901 65.8113 27.8211 69.2621 36.5079 69.2621C44.5496 69.2893 52.3149 66.3299 58.2989 60.9576L35.1713 37.8299C34.8196 37.477 34.6221 36.9991 34.6221 36.5009C34.6221 36.0027 34.8196 35.5248 35.1713 35.1719L58.2977 12.0443C52.3074 6.6851 44.5456 3.73238 36.5079 3.75502Z" fill="#FF8800"/>
<path d="M28.7881 27.7964C31.7572 27.7964 34.1641 25.3895 34.1641 22.4204C34.1641 19.4513 31.7572 17.0444 28.7881 17.0444C25.8191 17.0444 23.4122 19.4513 23.4122 22.4204C23.4122 25.3895 25.8191 27.7964 28.7881 27.7964Z" fill="#FF8800"/>
</svg>
