<svg width="22" height="20" viewBox="0 0 22 20" fill="none" xmlns="http://www.w3.org/2000/svg">
<g clip-path="url(#clip0_138_139)">
<path d="M21.6434 16.2821L16.8119 16.2302C19.3533 15.1201 20.5052 12.5908 20.5052 10.0095C20.5071 4.51099 16.1064 0.63916 10.6045 0.63916C5.10449 0.63916 0.703735 4.48602 0.703735 10.0095C0.703735 15.8941 4.97391 19.3799 10.7623 19.3799H22V16.2821H21.6434ZM4.83163 8.80919C4.91349 8.65938 4.97781 8.49422 5.02848 8.33097L5.05771 8.21766C5.13177 7.93341 5.23117 7.65301 5.35006 7.38222C5.39294 7.28427 5.50792 7.2401 5.60732 7.28235C5.70672 7.3246 5.75154 7.43791 5.70867 7.53586C5.62096 7.7356 5.54495 7.9411 5.48259 8.14852L5.43971 8.31368C5.38124 8.53647 5.26236 8.77269 5.1844 8.99548C5.12983 9.14912 4.9856 9.19138 4.86867 9.07614L4.86477 9.0723C4.79266 9.00316 4.78291 8.89561 4.83163 8.80919ZM4.7069 10.4666C4.67767 10.3744 4.7108 10.2746 4.78681 10.2131C5.30328 9.79827 5.69308 9.23939 5.89382 8.59024L5.9328 8.44044C6.37326 6.75804 7.7161 5.46743 9.43313 5.06987C9.53838 5.0449 9.64362 5.1102 9.66896 5.21391C9.69429 5.31762 9.62803 5.42133 9.52278 5.4463C8.00454 5.79584 6.80593 6.90976 6.35962 8.3713L6.31674 8.53839C6.10626 9.33734 5.72426 9.96728 5.02848 10.5108C4.89985 10.6107 4.78876 10.6087 4.7069 10.4666ZM4.91544 11.3885C4.91544 11.3866 4.91544 11.3866 4.91349 11.3846C4.88621 11.3021 4.92129 11.2137 4.99535 11.1676C5.19804 11.037 5.39099 10.8891 5.57029 10.7259C5.6502 10.6529 5.77298 10.6587 5.84704 10.7355C5.9211 10.8142 5.91526 10.9352 5.8373 11.0082C5.64045 11.1887 5.42802 11.3501 5.20389 11.4941C5.09669 11.5594 4.95442 11.5056 4.91544 11.3885ZM5.2799 12.2508C5.2799 12.2489 5.27795 12.2489 5.27795 12.247C5.23117 12.1586 5.26625 12.0511 5.35201 12.0011C5.69697 11.7937 6.01855 11.546 6.307 11.2656C6.93067 10.6568 7.38867 9.90198 7.64009 9.07038H7.63814L7.66348 8.97243C7.85642 8.23494 8.30663 7.57619 8.96148 7.17288C9.64752 6.75035 10.4583 6.62744 11.2379 6.82718C11.501 6.8944 11.7504 6.99619 11.9824 7.1287C12.0759 7.18248 12.1071 7.30155 12.0525 7.39182C11.998 7.484 11.8791 7.51473 11.7855 7.46096C11.5848 7.34573 11.3685 7.25738 11.1404 7.19976C10.4875 7.03268 9.80733 7.12678 9.22654 7.4648C8.69253 7.77401 8.30079 8.25607 8.10979 8.83223L8.06886 8.98588C7.81549 9.95575 7.30097 10.8392 6.5818 11.5383C6.26997 11.8417 5.925 12.1068 5.55275 12.3315C5.45725 12.3891 5.33057 12.3488 5.2799 12.2508ZM11.9044 8.79574C11.6842 8.42892 11.3334 8.16772 10.9143 8.06017C10.2848 7.90076 9.62413 8.12355 9.22654 8.63057C9.16028 8.71508 9.03749 8.73044 8.95174 8.66514C8.86598 8.59985 8.85039 8.47885 8.91666 8.39435C9.40974 7.76633 10.2322 7.48785 11.0118 7.68758C11.5322 7.8201 11.9687 8.14468 12.2416 8.59985C12.5144 9.05502 12.5904 9.58893 12.456 10.1017L12.415 10.2534H12.4111C12.2474 10.8392 12.0311 11.4096 11.766 11.9512C11.7193 12.0472 11.6023 12.0876 11.5049 12.0415C11.4074 11.9954 11.3665 11.8801 11.4133 11.7841C11.69 11.2176 11.9122 10.6183 12.074 10.0038L12.0935 9.93079C12.1773 9.54092 12.111 9.14144 11.9044 8.79574ZM5.77298 13.0382C5.77298 13.0363 5.77103 13.0344 5.77103 13.0344C5.70282 12.9422 5.73011 12.8174 5.82755 12.7578C7.0554 12.0146 7.99675 10.8642 8.45475 9.49098C8.48789 9.38919 8.59898 9.33542 8.70227 9.36807C8.80557 9.40072 8.86014 9.51019 8.82701 9.61198C8.33976 11.0716 7.338 12.2969 6.03219 13.0882C5.94644 13.1381 5.83145 13.117 5.77298 13.0382ZM6.39665 13.745L6.39275 13.7412C6.3031 13.6547 6.32064 13.5107 6.42589 13.4435C6.77475 13.2226 7.10412 12.9729 7.41011 12.6925C7.49002 12.6196 7.6128 12.6253 7.68686 12.7021C7.76092 12.7809 7.75508 12.9019 7.67712 12.9749C7.35164 13.2706 7.00473 13.5357 6.63637 13.768C6.56231 13.8161 6.46097 13.8065 6.39665 13.745ZM7.14115 14.3577C7.1392 14.3557 7.1392 14.3557 7.13726 14.3557C7.00473 14.277 7.01837 14.108 7.14505 14.0235C7.67712 13.6682 8.178 13.2437 8.59508 12.777C9.42534 11.8494 10.0061 10.7662 10.3219 9.56204C10.3491 9.45833 10.4563 9.39687 10.5596 9.42376C10.6649 9.45065 10.7272 9.55628 10.7 9.65807C10.3686 10.9237 9.75861 12.0588 8.88937 13.0325C8.44306 13.5318 7.93243 13.9755 7.37698 14.3538C7.30487 14.3999 7.21326 14.4018 7.14115 14.3577ZM8.02208 14.8474C7.87786 14.7763 7.87396 14.5996 8.00259 14.5036C9.55397 13.3302 10.7 11.6785 11.1969 9.78291L11.2125 9.71953C11.2398 9.5582 11.2086 9.39303 11.1229 9.24899C11.0254 9.08767 10.8715 8.97243 10.6863 8.92442C10.3375 8.83607 9.97884 9.01853 9.84631 9.33926L9.82292 9.43144C9.56566 10.4148 9.11545 11.3155 8.48594 12.1087C8.41967 12.1932 8.29689 12.2066 8.21113 12.1413C8.12538 12.076 8.11174 11.955 8.178 11.8705C8.7354 11.1676 9.14274 10.3764 9.39415 9.51595L9.39025 9.51403L9.42534 9.38343C9.57346 8.82071 10.1309 8.42508 10.7097 8.53263C11.0683 8.59792 11.3646 8.82647 11.5166 9.15489C11.6277 9.39495 11.6335 9.66767 11.5672 9.92311L11.5361 10.0422H11.5322C10.9904 11.9589 9.83267 13.6298 8.25206 14.8244C8.1858 14.8762 8.09614 14.8839 8.02208 14.8474ZM9.25772 15.172C9.20315 15.2181 9.12714 15.2373 9.05893 15.2161C9.05503 15.2142 9.05308 15.2142 9.04919 15.2123C8.88742 15.1643 8.85039 14.9722 8.97902 14.8647C9.70794 14.2559 10.3569 13.5472 10.8676 12.7559C10.926 12.6657 11.0469 12.6388 11.1385 12.6964C11.2301 12.754 11.2574 12.8731 11.1989 12.9633C10.6649 13.7873 10.01 14.5324 9.25772 15.172ZM10.4193 15.3275C10.3725 15.3717 10.3102 15.3967 10.2439 15.3928C10.24 15.3928 10.2381 15.3928 10.2342 15.3928C10.0471 15.3775 9.97299 15.1604 10.1075 15.0299C11.4601 13.7143 12.4696 12.0664 12.951 10.2304L12.9724 10.1478C13.1264 9.46793 12.9841 8.75541 12.5768 8.18117C12.5144 8.09474 12.5359 7.97375 12.6255 7.91229C12.7132 7.85083 12.836 7.87196 12.8984 7.9603C13.3876 8.64978 13.5454 9.51211 13.333 10.3264L13.2901 10.4877H13.2882C12.7717 12.3334 11.7797 13.9966 10.4193 15.3275ZM11.7271 15.2277C11.6783 15.3256 11.5594 15.3659 11.4601 15.3199C11.3607 15.2718 11.3197 15.1547 11.3685 15.0567C11.4172 14.9588 11.5361 14.9185 11.6355 14.9665C11.7329 15.0106 11.7758 15.1297 11.7271 15.2277ZM12.1519 14.4652C12.1422 14.4614 12.1344 14.4556 12.1246 14.4498C12.0369 14.3884 12.0155 14.2674 12.0779 14.181C12.8847 13.0555 13.4733 11.7995 13.828 10.4532L13.8417 10.4013C14.0522 9.54284 13.9196 8.65362 13.4636 7.89116C12.9978 7.11334 12.2533 6.56022 11.3665 6.33552C10.4797 6.10889 9.55592 6.23757 8.76659 6.69658C8.02793 7.12486 7.49002 7.79513 7.23665 8.59408L7.19183 8.76309C7.06904 9.22787 6.87804 9.66575 6.62468 10.0671C6.56816 10.1574 6.44732 10.1843 6.35572 10.1286C6.26412 10.0729 6.23684 9.95383 6.29336 9.86357C6.49215 9.5486 6.65002 9.21058 6.76111 8.85144L6.80983 8.66514C7.06514 7.69142 7.69076 6.87327 8.56974 6.36432C9.44872 5.85346 10.4778 5.71134 11.4659 5.96293C12.454 6.21452 13.2843 6.83102 13.8008 7.69719C14.3192 8.56335 14.4634 9.57741 14.2081 10.5511L14.1847 10.6395H14.1828C13.8144 11.9992 13.2141 13.2649 12.3975 14.4057C12.341 14.4806 12.2377 14.5055 12.1519 14.4652ZM10.4096 5.13901C10.4115 5.03338 10.5012 4.94888 10.6103 4.9508C10.9728 4.95848 11.3373 5.00841 11.692 5.09868C13.0699 5.45014 14.2022 6.38161 14.8006 7.65686C14.8454 7.75288 14.8025 7.86812 14.7051 7.91229C14.6486 7.93725 14.5881 7.93533 14.5375 7.91037C14.4985 7.89116 14.4653 7.86043 14.4459 7.81818C13.8982 6.64857 12.8594 5.79392 11.5945 5.47127C11.2691 5.38868 10.9358 5.34259 10.6025 5.33491C10.4934 5.33299 10.4076 5.24464 10.4096 5.13901ZM14.6895 11.9896C14.6388 12.1241 14.5842 12.2566 14.5297 12.3891C14.4731 12.5216 14.4166 12.6541 14.3562 12.7866C14.2958 12.9172 14.2354 13.0478 14.1711 13.1784C14.1067 13.3071 14.0424 13.4358 13.9742 13.5626C13.9079 13.6893 13.8378 13.8141 13.7676 13.939C13.6975 14.0619 13.6253 14.1829 13.5532 14.3039C13.4811 14.423 13.4071 14.5401 13.3311 14.6553C13.2979 14.7072 13.2628 14.7571 13.2297 14.809C13.1712 14.8935 13.0601 14.9646 12.9569 14.9185C12.9003 14.8935 12.8575 14.8359 12.8575 14.7725C12.8575 14.7226 12.8789 14.6726 12.9081 14.6323C13.7501 13.4627 14.3153 12.1433 14.6953 10.724L14.707 10.676C14.8649 10.0748 14.8883 9.46217 14.7791 8.85528C14.7596 8.75157 14.8318 8.64978 14.937 8.63249C15.0442 8.61329 15.1455 8.68435 15.165 8.78806C15.28 9.42376 15.2605 10.0652 15.1066 10.6952L15.0871 10.7739C15.0851 10.7797 15.0851 10.7835 15.0832 10.7893C15.0481 10.9237 15.0091 11.0562 14.9701 11.1887C14.9292 11.3232 14.8863 11.4576 14.8395 11.5901C14.7889 11.7227 14.7402 11.8552 14.6895 11.9896ZM15.3658 12.7598C15.3365 12.8289 15.3054 12.898 15.2761 12.9672C15.241 13.0459 15.1592 13.092 15.0715 13.0843C14.9292 13.069 14.859 12.9211 14.9253 12.7982C14.9584 12.7386 14.9779 12.6772 15.0052 12.6138C15.0461 12.5158 15.1611 12.4678 15.2605 12.5082C15.358 12.5485 15.4067 12.6618 15.3658 12.7598ZM15.9953 10.8584L15.9602 10.9967C15.8998 11.2233 15.8335 11.4557 15.7614 11.6823C15.7283 11.7841 15.6191 11.8398 15.5158 11.8091C15.5061 11.8052 15.4983 11.8033 15.4886 11.7995C15.4028 11.7592 15.358 11.6612 15.3872 11.569C15.4476 11.377 15.5041 11.1849 15.5568 10.9929L15.5802 10.9007C15.931 9.56588 15.7322 8.1754 15.0228 6.9885C14.3133 5.79968 13.1751 4.95656 11.8206 4.61086C10.7779 4.34582 9.69624 4.3996 8.69058 4.76643C7.7083 5.12557 6.86635 5.75743 6.25633 6.59287C6.19396 6.67929 6.07117 6.6985 5.98347 6.63704C5.89577 6.57558 5.87628 6.45459 5.93864 6.36817C6.5935 5.47127 7.49781 4.79331 8.55415 4.40536C9.63582 4.00973 10.7974 3.95211 11.9181 4.23635C13.3739 4.60702 14.5959 5.51544 15.3599 6.79069C16.0986 8.0256 16.3208 9.46409 15.9953 10.8584Z" fill="white"/>
</g>
<defs>
<clipPath id="clip0_138_139">
<rect width="21.2963" height="18.7407" fill="white" transform="translate(0.703735 0.63916)"/>
</clipPath>
</defs>
</svg>
