<svg width="87" height="83" viewBox="0 0 87 83" fill="none" xmlns="http://www.w3.org/2000/svg">
<path d="M82.329 76.2762C84.147 71.8709 83.8905 66.475 81.5307 60.2085C80.324 57.0238 78.6038 54.0582 76.4383 51.4292L74.4652 49.0177C72.4977 46.612 71.4353 43.5934 71.4623 40.4861C71.4847 39.8096 71.7466 39.1629 72.2015 38.6615C72.6564 38.16 73.2746 37.8364 73.9459 37.7481C74.4359 37.7344 74.9234 37.8225 75.3776 38.0068C75.8318 38.1911 76.2429 38.4676 76.5847 38.8188C78.4465 40.6374 78.3264 41.8032 78.0448 42.8426C77.968 43.127 77.9865 43.4288 78.0974 43.7018C78.2084 43.9748 78.4058 44.2039 78.6593 44.3541C78.9129 44.5044 79.2087 44.5674 79.5015 44.5336C79.7944 44.4999 80.068 44.3712 80.2807 44.1672C81.5659 42.9322 82.5247 41.3981 83.0715 39.7019C83.6183 38.0058 83.736 36.2006 83.4141 34.4479C83.0921 32.6952 82.3405 31.0496 81.2266 29.6584C80.1126 28.2671 78.671 27.1736 77.0308 26.4757C75.3906 25.7778 73.6029 25.4972 71.8277 25.6591C70.0525 25.821 68.345 26.4203 66.8582 27.4033C65.3714 28.3864 64.1515 29.7226 63.3078 31.2924C62.464 32.8621 62.0227 34.6165 62.0232 36.3985V40.6374C62.0176 45.5884 60.0477 50.335 56.5456 53.8359C53.0436 57.3368 48.2954 59.3061 43.3428 59.3117C42.8223 59.3117 42.3143 59.2792 41.7988 59.2642V52.5725H53.9355C55.0083 52.5725 56.0372 52.1464 56.7958 51.3881C57.5544 50.6297 57.9806 49.6011 57.9806 48.5287C57.9806 47.4562 57.5544 46.4276 56.7958 45.6693C56.0372 44.9109 55.0083 44.4849 53.9355 44.4849H53.5226C50.6066 36.6591 50.6066 28.0454 53.5226 20.2196H53.9355C55.0083 20.2196 56.0372 19.7935 56.7958 19.0352C57.5544 18.2768 57.9806 17.2482 57.9806 16.1758C57.9806 15.1033 57.5544 14.0747 56.7958 13.3164C56.0372 12.558 55.0083 12.132 53.9355 12.132H41.7988V1.34891C41.7989 1.13105 41.7462 0.916415 41.6452 0.723373C41.5442 0.530332 41.3979 0.364633 41.2188 0.24046C41.0398 0.116287 40.8333 0.0373382 40.617 0.0103705C40.4007 -0.0165972 40.1812 0.00921962 39.9771 0.0856113L29.1892 4.12816C28.9326 4.225 28.7115 4.3977 28.5555 4.62327C28.3995 4.84885 28.3159 5.11659 28.3159 5.39083C28.3159 5.66508 28.3995 5.93282 28.5555 6.15839C28.7115 6.38396 28.9326 6.55667 29.1892 6.6535L39.1012 10.3683V12.1332H26.9646C25.9432 12.133 24.9597 12.5198 24.2124 13.2158C23.465 13.9118 23.0094 14.8651 22.9374 15.8836C22.8653 16.9021 23.1822 17.9101 23.8241 18.7043C24.4661 19.4984 25.3853 20.0198 26.3966 20.1633C23.677 28.0614 23.677 36.6418 26.3966 44.5399C25.3838 44.6813 24.4624 45.2018 23.8188 45.9962C23.1753 46.7907 22.8574 47.7998 22.9296 48.8195C23.0017 49.8393 23.4585 50.7936 24.2075 51.4896C24.9565 52.1855 25.942 52.5712 26.9646 52.5687H39.1012V59.1253C32.0723 58.6944 25.255 56.5535 19.2422 52.8889C17.9974 52.0998 16.6039 51.5741 15.1479 51.3445C13.6918 51.1149 12.2041 51.1861 10.7767 51.5539C9.34933 51.9216 8.0125 52.578 6.84882 53.4825C5.68515 54.387 4.71934 55.5204 4.01106 56.8127C3.30278 58.105 2.86707 59.5287 2.73085 60.996C2.59463 62.4632 2.76078 63.9428 3.21906 65.3433C3.67733 66.7439 4.41798 68.0356 5.39526 69.1388C6.37255 70.2419 7.56571 71.133 8.90104 71.7571C9.17769 71.8866 9.49013 71.9183 9.78721 71.8472C10.0843 71.776 10.3484 71.6062 10.5363 71.3654C10.7243 71.1247 10.8249 70.8273 10.8217 70.5219C10.8185 70.2165 10.7117 69.9213 10.5188 69.6845C9.91061 68.9431 9.53964 68.036 9.45417 67.081C9.36871 66.126 9.57271 65.1674 10.0396 64.3299C10.3231 63.801 10.7147 63.3376 11.1889 62.9698C11.6631 62.602 12.2094 62.3379 12.7923 62.1948C12.9174 62.161 13.0425 62.131 13.1601 62.1072C13.5765 62.0134 14.0116 62.048 14.4079 62.2066C14.8042 62.3651 15.1431 62.6401 15.3797 62.9953C15.6652 63.4008 15.8243 63.8816 15.837 64.3773C15.8497 64.8729 15.7154 65.3613 15.4511 65.7808C14.394 67.5056 13.7433 69.4482 13.5482 71.4616C13.3532 73.475 13.6188 75.5063 14.325 77.4019C13.8997 78.1939 13.2217 78.821 12.3988 79.1834C11.5759 79.5458 10.6554 79.6227 9.78372 79.4018C8.91207 79.1809 8.13936 78.6749 7.58854 77.9644C7.03771 77.2539 6.74042 76.3796 6.74397 75.4807H4.04513C4.04414 76.553 3.61768 77.5811 2.85932 78.3394C2.10096 79.0977 1.07264 79.5244 0 79.5257L0 82.2212C1.05042 82.218 2.08546 81.9687 3.02202 81.4932C3.95857 81.0177 4.77052 80.3293 5.39267 79.4832C6.01284 80.3315 6.82447 81.0215 7.76161 81.4972C8.69875 81.9728 9.73495 82.2208 10.786 82.2208C11.837 82.2208 12.8732 81.9728 13.8103 81.4972C14.7475 81.0215 15.5591 80.3315 16.1793 79.4832C16.7994 80.3315 17.6111 81.0215 18.5482 81.4972C19.4853 81.9728 20.5215 82.2208 21.5726 82.2208C22.6236 82.2208 23.6598 81.9728 24.5969 81.4972C25.5341 81.0215 26.3457 80.3315 26.9659 79.4832C27.586 80.3315 28.3977 81.0215 29.3348 81.4972C30.2719 81.9728 31.3081 82.2208 32.3592 82.2208C33.4102 82.2208 34.4464 81.9728 35.3835 81.4972C36.3207 81.0215 37.1323 80.3315 37.7525 79.4832C38.3726 80.3315 39.1843 81.0215 40.1214 81.4972C41.0585 81.9728 42.0947 82.2208 43.1458 82.2208C44.1968 82.2208 45.233 81.9728 46.1701 81.4972C47.1073 81.0215 47.9189 80.3315 48.5391 79.4832C49.1592 80.3315 49.9709 81.0215 50.908 81.4972C51.8451 81.9728 52.8813 82.2208 53.9324 82.2208C54.9834 82.2208 56.0196 81.9728 56.9567 81.4972C57.8938 81.0215 58.7055 80.3315 59.3256 79.4832C59.9458 80.3315 60.7574 81.0215 61.6946 81.4972C62.6317 81.9728 63.6679 82.2208 64.7189 82.2208C65.77 82.2208 66.8062 81.9728 67.7433 81.4972C68.6804 81.0215 69.4921 80.3315 70.1122 79.4832C70.7324 80.3315 71.544 81.0215 72.4812 81.4972C73.4183 81.9728 74.4545 82.2208 75.5055 82.2208C76.5566 82.2208 77.5928 81.9728 78.5299 81.4972C79.467 81.0215 80.2787 80.3315 80.8988 79.4832C81.521 80.3293 82.3329 81.0177 83.2695 81.4932C84.206 81.9687 85.2411 82.218 86.2915 82.2212V79.5257C85.3574 79.5241 84.4526 79.1997 83.7304 78.6075C83.0082 78.0153 82.5131 77.1916 82.329 76.2762ZM39.1012 3.29388V7.49028L33.5034 5.39146L39.1012 3.29388ZM50.6473 44.4811H29.2405C26.3258 36.6551 26.3258 28.0418 29.2405 20.2158H50.6486C47.9541 28.0799 47.9536 36.6167 50.6473 44.4811ZM25.6233 16.1758C25.6237 15.8183 25.7659 15.4755 26.0187 15.2227C26.2716 14.9699 26.6145 14.8277 26.9721 14.8274H53.9267C54.1072 14.8219 54.287 14.8527 54.4554 14.918C54.6237 14.9832 54.7773 15.0816 54.9069 15.2073C55.0365 15.333 55.1396 15.4834 55.21 15.6497C55.2803 15.8159 55.3166 15.9946 55.3166 16.1751C55.3166 16.3557 55.2803 16.5343 55.21 16.7006C55.1396 16.8668 55.0365 17.0173 54.9069 17.143C54.7773 17.2687 54.6237 17.3671 54.4554 17.4323C54.287 17.4976 54.1072 17.5284 53.9267 17.5229H26.9659C26.6085 17.5222 26.2659 17.3799 26.0133 17.1271C25.7607 16.8744 25.6187 16.5318 25.6183 16.1745L25.6233 16.1758ZM25.6233 48.5249C25.6237 48.1674 25.7659 47.8246 26.0187 47.5718C26.2716 47.3191 26.6145 47.1769 26.9721 47.1766H53.9267C54.1072 47.1711 54.287 47.2019 54.4554 47.2671C54.6237 47.3324 54.7773 47.4308 54.9069 47.5564C55.0365 47.6821 55.1396 47.8326 55.21 47.9988C55.2803 48.1651 55.3166 48.3438 55.3166 48.5243C55.3166 48.7048 55.2803 48.8835 55.21 49.0497C55.1396 49.216 55.0365 49.3664 54.9069 49.4921C54.7773 49.6178 54.6237 49.7162 54.4554 49.7815C54.287 49.8467 54.1072 49.8775 53.9267 49.872H26.9659C26.6085 49.8713 26.2659 49.729 26.0133 49.4763C25.7607 49.2235 25.6187 48.8809 25.6183 48.5237L25.6233 48.5249ZM75.5062 79.5257C74.4337 79.5244 73.4056 79.0979 72.6473 78.3399C71.889 77.5818 71.4624 76.554 71.461 75.4819H68.7647C68.7647 76.5544 68.3385 77.5829 67.5799 78.3413C66.8213 79.0997 65.7924 79.5257 64.7196 79.5257C63.6467 79.5257 62.6178 79.0997 61.8592 78.3413C61.1006 77.5829 60.6744 76.5544 60.6744 75.4819H57.9781C57.9781 76.5544 57.5519 77.5829 56.7933 78.3413C56.0347 79.0997 55.0058 79.5257 53.933 79.5257C52.8601 79.5257 51.8312 79.0997 51.0726 78.3413C50.314 77.5829 49.8878 76.5544 49.8878 75.4819H47.1915C47.1915 76.5544 46.7653 77.5829 46.0067 78.3413C45.2481 79.0997 44.2192 79.5257 43.1464 79.5257C42.0735 79.5257 41.0447 79.0997 40.286 78.3413C39.5274 77.5829 39.1012 76.5544 39.1012 75.4819H36.4099C36.4099 76.5544 35.9837 77.5829 35.2251 78.3413C34.4665 79.0997 33.4376 79.5257 32.3648 79.5257C31.292 79.5257 30.2631 79.0997 29.5044 78.3413C28.7458 77.5829 28.3197 76.5544 28.3197 75.4819H25.6183C25.6183 76.5544 25.1921 77.5829 24.4335 78.3413C23.6749 79.0997 22.646 79.5257 21.5732 79.5257C20.5004 79.5257 19.4715 79.0997 18.7129 78.3413C17.9542 77.5829 17.5281 76.5544 17.5281 75.4819H16.5396C16.3046 74.6026 16.1835 73.6967 16.1793 72.7865C16.1768 70.8099 16.7198 68.871 17.7483 67.1829C18.2815 66.3142 18.5498 65.3089 18.5202 64.2901C18.4907 63.2713 18.1646 62.2832 17.5819 61.4468C17.0433 60.6631 16.2845 60.0565 15.4013 59.7037C14.5181 59.3508 13.5501 59.2675 12.6196 59.4643C12.4394 59.5006 12.2605 59.5444 12.0778 59.5894C11.1303 59.834 10.2449 60.2751 9.47901 60.8841C8.71313 61.4931 8.08395 62.2563 7.63232 63.1241C7.1021 64.1653 6.80333 65.3088 6.75648 66.4762C5.96632 65.2928 5.50293 63.9217 5.41322 62.5016C5.32351 61.0816 5.61066 59.6631 6.24562 58.3897C6.88057 57.1163 7.84078 56.0331 9.02906 55.2499C10.2173 54.4667 11.5915 54.0112 13.0125 53.9296C14.7015 53.8219 16.381 54.2538 17.8083 55.1628C25.5008 59.8115 34.3546 62.1835 43.3416 62.0034C49.0099 61.9988 54.4448 59.7457 58.453 55.7389C62.4611 51.732 64.7149 46.2989 64.7196 40.6324V36.3985C64.7181 35.205 64.9816 34.0261 65.4912 32.9467C66.0007 31.8674 66.7436 30.9146 67.6661 30.1571C68.6003 29.3928 69.6924 28.8452 70.8638 28.5536C72.0351 28.2621 73.2566 28.2339 74.4401 28.471C76.008 28.7836 77.4467 29.5573 78.5717 30.6927C79.6968 31.8281 80.4571 33.2736 80.7549 34.8438C81.0496 36.3667 80.9042 37.9421 80.3358 39.3854C79.8625 38.4528 79.2294 37.6104 78.4653 36.8963C77.8476 36.2793 77.1079 35.7979 76.2935 35.4828C75.4792 35.1677 74.608 35.0259 73.7357 35.0664C72.392 35.209 71.1463 35.8361 70.2315 36.8304C69.3168 37.8247 68.7958 39.1181 68.7659 40.4686C68.7344 44.2064 70.0128 47.8373 72.3794 50.7313L74.3526 53.1428C76.3319 55.5447 77.9046 58.2543 79.0083 61.1641C81.1616 66.884 81.4093 71.702 79.759 75.4894H79.5513C79.548 76.5602 79.1205 77.5861 78.3624 78.3425C77.6043 79.099 76.5773 79.5244 75.5062 79.5257Z" fill="white"/>
</svg>
