<svg width="110" height="97" viewBox="0 0 110 97" fill="none" xmlns="http://www.w3.org/2000/svg">
<path d="M30.3289 73.9599L30.3302 73.9599C31.5524 73.9571 32.7237 73.4704 33.5879 72.6062C34.4521 71.742 34.9388 70.5707 34.9415 69.3485V69.3473C34.9415 68.435 34.671 67.5432 34.1642 66.7846C33.6573 66.0261 32.9369 65.4349 32.0941 65.0858C31.2513 64.7367 30.3238 64.6453 29.4291 64.8233C28.5343 65.0013 27.7124 65.4406 27.0673 66.0857C26.4223 66.7307 25.983 67.5526 25.805 68.4474C25.627 69.3421 25.7183 70.2696 26.0675 71.1124C26.4166 71.9553 27.0078 72.6756 27.7663 73.1825C28.5249 73.6893 29.4167 73.9599 30.3289 73.9599ZM27.275 64.7767C28.1789 64.1727 29.2415 63.8503 30.3286 63.8502C31.786 63.8521 33.1832 64.4319 34.2137 65.4625C35.2444 66.4931 35.8242 67.8904 35.826 69.3479C35.8258 70.4349 35.5035 71.4974 34.8996 72.4012C34.2955 73.3052 33.437 74.0098 32.4326 74.4258C31.4281 74.8419 30.3229 74.9508 29.2565 74.7387C28.1902 74.5265 27.2107 74.003 26.442 73.2342C25.6732 72.4655 25.1497 71.486 24.9376 70.4197C24.7255 69.3534 24.8343 68.2481 25.2504 67.2437C25.6664 66.2392 26.371 65.3807 27.275 64.7767Z" fill="white" stroke="#FF8800" stroke-width="1.13749"/>
<path d="M30.3287 36.5517C38.2195 36.5603 45.7847 39.6987 51.3645 45.2782C56.9444 50.8578 60.0831 58.423 60.0921 66.3139C60.0919 72.1999 58.3465 77.9537 55.0764 82.8477C51.8062 87.742 47.1582 91.5566 41.7201 93.8092C36.2819 96.0619 30.298 96.6513 24.5248 95.5031C18.7517 94.3548 13.4487 91.5205 9.28637 87.3584C5.12408 83.1963 2.28945 77.8934 1.14092 72.1203C-0.00760213 66.3473 0.581567 60.3632 2.83393 54.925C5.08628 49.4868 8.90067 44.8385 13.7947 41.5681C18.6887 38.2977 24.4426 36.552 30.3287 36.5517ZM59.2076 66.3138V66.3132C59.2073 60.602 57.5135 55.0191 54.3403 50.2705C51.1671 45.5219 46.6571 41.8209 41.3806 39.6354C36.104 37.45 30.2979 36.8782 24.6964 37.9925C19.095 39.1068 13.9497 41.8571 9.91124 45.8955C5.87279 49.934 3.12253 55.0792 2.00825 60.6807C0.893973 66.2822 1.46571 72.0883 3.65116 77.3648C5.83662 82.6414 9.53764 87.1514 14.2862 90.3246C19.0348 93.4978 24.6177 95.1916 30.3289 95.1919H30.3296C37.986 95.1838 45.3266 92.1387 50.7405 86.7248C56.1544 81.3108 59.1995 73.9703 59.2076 66.3138Z" fill="white" stroke="#FF8800" stroke-width="1.13749"/>
<path d="M30.3282 43.5022L30.3296 43.5022C34.9387 43.5081 39.4381 44.908 43.2369 47.518C47.0357 50.128 49.9562 53.8261 51.6147 58.1264L51.829 58.6822L51.2639 58.8706L43.69 61.3952L30.3282 43.5022ZM30.3282 43.5022C25.5834 43.5079 20.9581 44.9908 17.0944 47.7449C13.2308 50.4991 10.3205 54.3879 8.7677 58.8714L8.56746 59.4496L9.15867 59.6071L17.2644 61.7671L17.2649 61.7673C19.8075 62.4424 22.5045 62.2291 24.9094 61.1626C24.9094 61.1626 24.9095 61.1626 24.9095 61.1626L25.2921 60.993L25.2924 60.9929M30.3282 43.5022L25.2924 60.9929M25.2924 60.9929C26.8785 60.2889 28.5944 59.9252 30.3297 59.9252C32.0647 59.9252 33.7805 60.2888 35.3663 60.9926M25.2924 60.9929L35.3663 60.9926M32.9285 88.9888L33.017 88.2486C33.6367 83.0621 35.7195 78.159 39.022 74.112C42.3243 70.0652 46.71 67.0416 51.6667 65.3943L32.9285 88.9888ZM32.9285 88.9888L33.6658 88.8786C39.0742 88.0701 44.0131 85.3484 47.5853 81.2079C51.1574 77.0674 53.1258 71.7828 53.1328 66.3144V66.3136C53.1328 66.2001 53.1287 66.0887 53.125 65.9891L53.1249 65.9853C53.1211 65.8812 53.1178 65.7896 53.1178 65.6997V64.9106L52.3692 65.1601L51.6672 65.3941L32.9285 88.9888ZM35.3663 60.9926C37.9927 62.1633 40.9624 62.307 43.6895 61.3954L35.3663 60.9926ZM7.51752 66.3136L7.51752 66.3144C7.52488 71.7845 9.49478 77.0703 13.0691 81.2111C16.6435 85.3518 21.585 88.0725 26.9953 88.8786L27.7324 88.9885L27.6438 88.2486C27.0232 83.0608 24.9389 78.1567 21.6344 74.1097C18.3301 70.0628 13.9422 67.0399 8.98362 65.3943C8.98338 65.3942 8.98314 65.3941 8.9829 65.3941L8.28112 65.1601L7.54967 64.9163L7.53267 65.6872C7.53132 65.7484 7.52912 65.8163 7.52681 65.8877C7.52237 66.0249 7.51752 66.1747 7.51752 66.3136ZM28.5624 88.5819L28.6125 89.0658L29.0983 89.0912C29.5075 89.1127 29.9168 89.125 30.3289 89.125C30.7424 89.125 31.1534 89.1127 31.5556 89.0912L32.041 89.0653L32.091 88.5817C32.6529 83.1433 34.7727 77.9827 38.1956 73.7194C41.6186 69.4562 46.1994 66.2715 51.3879 64.5478L51.3884 64.5476L52.5773 64.1513L53.0179 64.0044L52.9621 63.5434C52.8204 62.3738 52.5877 61.217 52.2661 60.0836L52.1036 59.5111L51.5391 59.6993L43.9648 62.2241L43.9643 62.2243C41.0295 63.2057 37.8335 63.0521 35.0063 61.7937L35.0059 61.7936C33.5327 61.1392 31.9387 60.801 30.3267 60.801C28.7147 60.801 27.1206 61.1392 25.6474 61.7936L25.6474 61.7935L25.6403 61.7967L25.2627 61.9707C22.6734 63.1177 19.7701 63.3465 17.033 62.6193L8.87981 60.4444L8.31924 60.2948L8.18088 60.8583C7.9631 61.7452 7.79908 62.6444 7.68973 63.5511L7.63415 64.012L8.07453 64.1588L9.26337 64.5551L9.26396 64.5553C14.4517 66.2782 19.0321 69.4617 22.4552 73.7236C25.8784 77.9854 27.9989 83.1446 28.5624 88.5819ZM17.1642 46.6113C21.0609 44.0076 25.6421 42.6179 30.3286 42.6178C36.6109 42.6253 42.6338 45.1242 47.0761 49.5665C51.5184 54.0089 54.0174 60.0319 54.0247 66.3143C54.0246 71.0007 52.6349 75.5818 50.0313 79.4783C47.4275 83.3751 43.7267 86.4122 39.3969 88.2057C35.0671 89.9992 30.3026 90.4685 25.7061 89.5542C21.1095 88.6398 16.8874 86.383 13.5734 83.0691C10.2595 79.7552 8.0027 75.533 7.0884 70.9365C6.17409 66.3399 6.64335 61.5755 8.43683 57.2456C10.2303 52.9158 13.2675 49.215 17.1642 46.6113Z" fill="white" stroke="#FF8800" stroke-width="1.13749"/>
<path d="M78.9841 33.4933L79.3863 33.0911C80.0614 33.7663 80.9216 34.2261 81.858 34.4123C82.7945 34.5986 83.7652 34.503 84.6473 34.1376C85.5294 33.7722 86.2834 33.1535 86.8138 32.3596C87.3441 31.5659 87.6273 30.6329 87.6274 29.6783L78.9841 33.4933ZM78.9841 33.4933L79.3863 33.0911C78.7111 32.416 78.2513 31.5558 78.0651 30.6194C77.8788 29.6829 77.9744 28.7122 78.3398 27.8301C78.7052 26.948 79.3239 26.194 80.1178 25.6636C80.9116 25.1332 81.8448 24.8501 82.7995 24.85M78.9841 33.4933L82.7995 24.85M82.7995 24.85C84.0793 24.8519 85.3063 25.3611 86.2113 26.2661C87.1164 27.1712 87.6256 28.3983 87.6274 29.6783L82.7995 24.85ZM80.4824 33.1398C81.1684 33.5982 81.9749 33.8428 82.7999 33.8428C83.3477 33.8428 83.8901 33.7349 84.3961 33.5253C84.9022 33.3157 85.3621 33.0084 85.7494 32.6211C86.1367 32.2338 86.444 31.7739 86.6536 31.2678C86.8633 30.7617 86.9711 30.2193 86.9711 29.6715C86.9711 28.8466 86.7265 28.0401 86.2682 27.3541C85.8098 26.6681 85.1583 26.1335 84.3961 25.8178C83.6339 25.5021 82.7952 25.4195 81.9861 25.5804C81.177 25.7414 80.4337 26.1386 79.8503 26.722C79.267 27.3054 78.8697 28.0486 78.7087 28.8578C78.5478 29.6669 78.6304 30.5056 78.9461 31.2678C79.2618 32.03 79.7965 32.6815 80.4824 33.1398Z" fill="white" stroke="#FF8800" stroke-width="1.13749"/>
<path d="M82.798 0.568746C89.8001 0.576613 96.5132 3.36157 101.465 8.31267C106.416 13.2639 109.201 19.9769 109.21 26.9791C109.209 32.2022 107.661 37.3079 104.759 41.6508C101.857 45.9938 97.7324 49.3788 92.9067 51.3778C88.081 53.3767 82.771 53.8998 77.648 52.8809C72.5251 51.862 67.8193 49.3468 64.1258 45.6535C60.4323 41.9602 57.9169 37.2546 56.8977 32.1317C55.8785 27.0088 56.4013 21.6987 58.3999 16.8729C60.3986 12.0472 63.7834 7.92242 68.1263 5.0203C72.469 2.11825 77.5748 0.569101 82.798 0.568746ZM108.549 26.9791V26.9784C108.548 21.8859 107.038 16.9078 104.209 12.6737C101.379 8.43951 97.3577 5.13944 92.6528 3.19075C87.9478 1.24206 82.7707 0.732276 77.776 1.72585C72.7814 2.71943 68.1935 5.17175 64.5925 8.77272C60.9916 12.3737 58.5392 16.9616 57.5457 21.9562C56.5521 26.9509 57.0619 32.128 59.0106 36.833C60.9592 41.5379 64.2593 45.5594 68.4935 48.3888C72.7276 51.2183 77.7057 52.7286 82.7982 52.7289H82.7989C89.6259 52.7216 96.1713 50.0064 100.999 45.1789C105.826 40.3515 108.541 33.8061 108.549 26.9791Z" fill="white" stroke="#FF8800" stroke-width="1.13749"/>
<path d="M81.2214 47.2747L81.1713 46.7923C80.6704 41.9671 78.7874 37.389 75.7484 33.6076C72.7094 29.8263 68.6436 27.0024 64.0392 25.4751L64.0372 25.4744L62.9865 25.1217L62.5473 24.9742L62.6028 24.5143C62.7005 23.7052 62.847 22.9026 63.0415 22.1111L63.1799 21.5478L63.7404 21.6973L70.9931 23.6321C73.4137 24.2762 75.9816 24.0748 78.2721 23.0612L78.273 23.0608L78.6121 22.9114C78.6125 22.9112 78.6129 22.9111 78.6132 22.9109C79.9314 22.3257 81.3576 22.0233 82.7998 22.0233C84.2424 22.0233 85.669 22.3258 86.9874 22.9114L86.9879 22.9116C89.4881 24.0245 92.3146 24.1604 94.9101 23.2926L94.9102 23.2925L101.648 21.041L102.214 20.852L102.376 21.4257C102.662 22.4377 102.869 23.4706 102.994 24.5148L103.049 24.9744L102.61 25.1217L101.559 25.4744L101.558 25.475C96.9536 27.003 92.8885 29.8274 89.8503 33.609C86.8121 37.3906 84.9299 41.9687 84.4298 46.7937L84.3795 47.2782L83.893 47.3031C83.5327 47.3215 83.1692 47.3323 82.8013 47.3323L81.2214 47.2747ZM81.2214 47.2747L81.7056 47.3015C82.0676 47.3215 82.4319 47.3323 82.7998 47.3323L81.2214 47.2747ZM101.443 20.4191L102.008 20.2304L101.793 19.675C100.313 15.8382 97.7071 12.5388 94.3174 10.2104C90.9276 7.88194 86.9129 6.6333 82.8005 6.62852L82.799 6.62852C78.5658 6.63465 74.4396 7.95863 70.9931 10.4166C67.5467 12.8747 64.9511 16.3448 63.5667 20.3451L63.3667 20.9231L63.9576 21.0807L71.1627 23.002L71.1633 23.0022C73.4387 23.6063 75.8522 23.4153 78.0043 22.4608C78.0045 22.4607 78.0047 22.4606 78.0049 22.4605L78.3443 22.311L78.3456 22.3104C79.7486 21.6881 81.2664 21.3666 82.8013 21.3666C84.336 21.3666 85.8537 21.6881 87.2567 22.3103C89.6069 23.3579 92.2644 23.4865 94.7048 22.6707C94.7048 22.6707 94.7048 22.6707 94.7049 22.6707L101.443 20.4191ZM62.4486 26.9797L62.4486 26.9804C62.455 31.8602 64.2119 36.5757 67.3999 40.27C70.5879 43.9644 74.9955 46.3925 79.8218 47.113L80.559 47.223L80.4705 46.4829C79.9173 41.8573 78.0593 37.4846 75.1135 33.8757C72.1678 30.2669 68.256 27.5708 63.8351 26.1024C63.835 26.1023 63.8348 26.1022 63.8346 26.1022L63.2111 25.8939L62.4814 25.65L62.4623 26.4192C62.4611 26.4698 62.4593 26.5249 62.4574 26.5825C62.4532 26.7091 62.4486 26.8482 62.4486 26.9797ZM85.6953 47.1192H86.2002L86.2092 47.0439C90.8668 46.2466 95.108 43.8543 98.2011 40.2699C101.389 36.5752 103.146 31.8591 103.152 26.9789V26.9782C103.152 26.8757 103.149 26.7754 103.145 26.6869L103.145 26.6833C103.142 26.5905 103.139 26.5103 103.139 26.4318V25.6421L102.39 25.8924L101.767 26.1007C101.766 26.1007 101.766 26.1007 101.766 26.1007C97.345 27.569 93.4328 30.2654 90.487 33.8746C87.5411 37.4839 85.6833 41.857 85.1306 46.483L85.6512 46.5452L85.6938 47.1192H85.6953ZM71.1241 9.50569C74.58 7.19679 78.6431 5.96454 82.7993 5.96474C88.3702 5.97336 93.7103 8.19027 97.6494 12.1296C101.589 16.069 103.805 21.4095 103.813 26.9805C103.813 31.1366 102.581 35.1994 100.271 38.6551C97.9623 42.111 94.6801 44.8046 90.84 46.3951C87 47.9856 82.7745 48.4017 78.6979 47.5907C74.6214 46.7797 70.8769 44.7781 67.938 41.839C64.999 38.8998 62.9977 35.1552 62.187 31.0786C61.3763 27.002 61.7926 22.7766 63.3834 18.9366C64.9742 15.0966 67.668 11.8147 71.1241 9.50569Z" fill="white" stroke="#FF8800" stroke-width="1.13749"/>
</svg>
