<svg width="83" height="83" viewBox="0 0 83 83" fill="none" xmlns="http://www.w3.org/2000/svg">
<path d="M41.1699 51.2309H41.1703C42.7464 51.2294 44.2574 50.6026 45.3718 49.4882C46.4863 48.3738 47.113 46.8628 47.1145 45.2867V45.2863C47.1145 44.1106 46.7659 42.9612 46.1127 41.9836C45.4595 41.006 44.5311 40.2441 43.4448 39.7941C42.3586 39.3442 41.1633 39.2265 40.0102 39.4558C38.857 39.6852 37.7978 40.2514 36.9664 41.0828C36.135 41.9141 35.5688 42.9734 35.3395 44.1265C35.1101 45.2797 35.2278 46.475 35.6777 47.5612C36.1277 48.6475 36.8896 49.5759 37.8672 50.2291C38.8448 50.8823 39.9942 51.2309 41.1699 51.2309ZM36.8482 38.8185C38.1274 37.9638 39.6312 37.5076 41.1697 37.5075C43.232 37.5099 45.2093 38.3302 46.6676 39.7886C48.126 41.247 48.9463 43.2243 48.9487 45.2868C48.9486 46.8251 48.4924 48.3289 47.6377 49.6079C46.783 50.8872 45.5681 51.8842 44.1467 52.4729C42.7253 53.0617 41.1613 53.2157 39.6523 52.9156C38.1434 52.6155 36.7573 51.8746 35.6695 50.7867C34.5816 49.6988 33.8407 48.3128 33.5406 46.8038C33.2404 45.2949 33.3945 43.7309 33.9832 42.3095C34.572 40.8881 35.569 39.6732 36.8482 38.8185Z" fill="white" stroke="white" stroke-width="0.910027"/>
<path d="M41.1714 0.455013C51.9658 0.467663 62.3145 4.76143 69.9472 12.3944C77.5798 20.0273 81.8732 30.376 81.8856 41.1703C81.8856 49.2231 79.4977 57.095 75.0238 63.7906C70.5498 70.4863 64.1909 75.7048 56.7511 78.7865C49.3113 81.8681 41.1247 82.6743 33.2267 81.1032C25.3286 79.5321 18.0739 75.6542 12.3798 69.9599C6.68571 64.2656 2.80806 57.0107 1.2372 49.1127C-0.333655 41.2146 0.472831 33.028 3.55468 25.5883C6.63652 18.1486 11.8553 11.7898 18.5511 7.31614C25.2468 2.84249 33.1187 0.4548 41.1714 0.455013ZM80.0515 41.1708V41.1703C80.0515 33.4806 77.7712 25.9636 73.4991 19.5698C69.2269 13.1761 63.1547 8.19275 56.0503 5.25003C48.946 2.3073 41.1285 1.53735 33.5866 3.03754C26.0446 4.53773 19.1169 8.24067 13.6795 13.6781C8.24202 19.1156 4.53908 26.0433 3.03889 33.5852C1.53871 41.1272 2.30866 48.9446 5.25138 56.049C8.1941 63.1533 13.1774 69.2255 19.5712 73.4977C25.9649 77.7699 33.482 80.0501 41.1717 80.0501L41.1722 80.0501C51.4801 80.0387 61.3626 75.9388 68.6514 68.65C75.9402 61.3612 80.04 51.4787 80.0515 41.1708Z" fill="white" stroke="white" stroke-width="0.910027"/>
<path d="M69.4855 30.7624L69.9376 30.6116L69.7661 30.167C67.5376 24.3902 63.6139 19.4225 58.5104 15.9165C53.4069 12.4105 47.3623 10.5302 41.1705 10.5225L41.1693 10.5225C34.7953 10.5317 28.5822 12.5251 23.3926 16.226C18.203 19.9268 14.2944 25.1516 12.2093 31.175L12.0491 31.6377L12.5224 31.7635L23.5203 34.6879L23.5204 34.6879C26.9021 35.5862 30.4892 35.3028 33.6878 33.8846L33.6879 33.8846L34.2084 33.6537L34.2085 33.6536C36.4019 32.6801 38.7749 32.1771 41.1746 32.1771C43.5743 32.1771 45.9474 32.6801 48.1407 33.6536C51.633 35.2107 55.5821 35.402 59.2086 34.1898L69.4855 30.7624ZM10.5239 41.1686L10.5239 41.1692C10.5334 48.5175 13.1792 55.6186 17.9805 61.1816C22.7817 66.7446 29.4196 70.4002 36.6876 71.484L37.2773 71.5719L37.2065 70.9799C36.372 63.9983 33.5676 57.3984 29.1211 51.9515C24.6748 46.5047 18.7701 42.4358 12.097 40.2203C12.0969 40.2203 12.0968 40.2203 12.0966 40.2202L11.1442 39.9027L10.5631 39.709L10.5454 40.3213C10.5433 40.395 10.5407 40.471 10.5381 40.5483C10.5311 40.7497 10.5239 40.9608 10.5239 41.1686ZM39.093 71.3664L39.133 71.7527L39.5208 71.7739C40.0663 71.8037 40.6165 71.82 41.1699 71.82C41.7272 71.82 42.2767 71.7982 42.818 71.77L43.2067 71.7497L43.2469 71.3625C44.018 63.921 46.9204 56.8603 51.6056 51.0277C56.2908 45.1952 62.5597 40.8387 69.6598 38.4812L71.273 37.9475L71.6266 37.8305L71.5818 37.4607C71.3911 35.8895 71.078 34.3356 70.6455 32.8131L70.5154 32.3552L70.0638 32.5058L59.7866 35.9333L59.7863 35.9334C55.7272 37.2906 51.307 37.0776 47.3972 35.3367L47.3968 35.3365C45.4376 34.4664 43.3177 34.0168 41.1739 34.0168C39.0302 34.0168 36.9103 34.4664 34.9511 35.3365L34.4308 35.5673C34.4308 35.5673 34.4307 35.5673 34.4307 35.5673C30.8484 37.1554 26.8311 37.4724 23.0441 36.4658L11.9758 33.5135L11.5273 33.3939L11.4166 33.8446C11.124 35.0362 10.9037 36.2443 10.7567 37.4623L10.7122 37.8319L11.0656 37.9488L12.6788 38.4825C19.7794 40.8401 26.0488 45.197 30.7342 51.03C35.4197 56.8631 38.3221 63.9244 39.093 71.3664ZM45.1333 70.9853L45.5918 71.0697L45.6536 71.484C52.9213 70.4 59.5588 66.7445 64.36 61.1818C69.1611 55.6192 71.8072 48.5186 71.8173 41.1705V41.1699C71.8173 40.9613 71.8101 40.7507 71.8032 40.5497C71.8005 40.4724 71.7979 40.3965 71.7958 40.3226L71.7781 39.7104L71.1971 39.9041L70.2446 40.2215C70.2444 40.2216 70.2443 40.2217 70.2441 40.2217C63.5703 42.4373 57.6649 46.5066 53.2183 51.9542C48.7715 57.4019 45.9673 64.0028 45.1333 70.9853ZM23.1253 14.1629C28.4664 10.5939 34.7459 8.68871 41.1698 8.68841C49.7817 8.69649 58.0387 12.1211 64.1284 18.2105C70.218 24.2999 73.6429 32.5567 73.6514 41.1686C73.6514 47.5925 71.7465 53.8721 68.1776 59.2135C64.6087 64.5548 59.5361 68.7178 53.6012 71.1762C47.6663 73.6346 41.1357 74.2779 34.8352 73.0247C28.5347 71.7716 22.7473 68.6783 18.2048 64.136C13.6623 59.5937 10.5688 53.8064 9.31537 47.5059C8.06197 41.2055 8.70499 34.6749 11.1631 28.7399C13.6213 22.8049 17.7841 17.7321 23.1253 14.1629Z" fill="white" stroke="white" stroke-width="0.910027"/>
</svg>
