<svg width="83" height="83" viewBox="0 0 83 83" fill="none" xmlns="http://www.w3.org/2000/svg">
<path d="M41.1699 37.0525C39.5414 37.0525 37.9495 37.5354 36.5954 38.4401C35.2414 39.3449 34.1861 40.6308 33.5629 42.1353C32.9397 43.6399 32.7766 45.2954 33.0943 46.8926C33.412 48.4898 34.1962 49.9569 35.3477 51.1085C36.4992 52.26 37.9664 53.0442 39.5636 53.3619C41.1608 53.6796 42.8163 53.5165 44.3208 52.8933C45.8254 52.2701 47.1113 51.2148 48.0161 49.8607C48.9208 48.5067 49.4037 46.9148 49.4037 45.2863C49.4012 43.1033 48.5329 41.0104 46.9893 39.4668C45.4457 37.9232 43.3529 37.055 41.1699 37.0525ZM41.1699 50.7759C40.0842 50.7759 39.0228 50.454 38.12 49.8508C37.2173 49.2475 36.5136 48.3902 36.0981 47.3871C35.6826 46.384 35.5739 45.2802 35.7857 44.2153C35.9976 43.1504 36.5204 42.1723 37.2881 41.4045C38.0559 40.6368 39.034 40.1139 40.0989 39.9021C41.1638 39.6903 42.2676 39.799 43.2707 40.2145C44.2738 40.63 45.1312 41.3336 45.7344 42.2364C46.3376 43.1392 46.6595 44.2005 46.6595 45.2863C46.6581 46.7418 46.0793 48.1373 45.0501 49.1665C44.0209 50.1957 42.6254 50.7745 41.1699 50.7759Z" fill="#FF8800"/>
<path d="M41.1717 2.1645e-08C33.0289 -0.00026396 25.0689 2.41411 18.2983 6.9378C11.5277 11.4615 6.25059 17.8913 3.1343 25.4142C0.0180169 32.9371 -0.797483 41.2151 0.790932 49.2014C2.37935 57.1878 6.30033 64.5237 12.058 70.2816C17.8158 76.0395 25.1516 79.9608 33.1379 81.5494C41.1242 83.1381 49.4022 82.3229 56.9252 79.2068C64.4482 76.0908 70.8782 70.8139 75.4021 64.0434C79.926 57.273 82.3406 49.3131 82.3406 41.1703C82.3283 30.2553 77.9869 19.7908 70.2689 12.0726C62.551 4.35442 52.0867 0.0127174 41.1717 2.1645e-08V2.1645e-08ZM41.1717 79.5951C33.5719 79.5951 26.1429 77.3416 19.824 73.1194C13.505 68.8972 8.58004 62.8961 5.67176 55.8748C2.76347 48.8536 2.00253 41.1277 3.48516 33.674C4.96779 26.2203 8.6274 19.3737 14.0012 13.9999C19.375 8.62605 26.2217 4.96644 33.6754 3.48381C41.129 2.00118 48.855 2.76212 55.8762 5.6704C62.8974 8.57869 68.8986 13.5037 73.1207 19.8226C77.3429 26.1416 79.5965 33.5706 79.5965 41.1703C79.5852 51.3577 75.5332 61.1247 68.3296 68.3283C61.126 75.5319 51.3591 79.5838 41.1717 79.5951Z" fill="#FF8800"/>
<path d="M41.1699 8.2334C34.656 8.23366 28.2885 10.1655 22.8725 13.7846C17.4565 17.4037 13.2353 22.5476 10.7428 28.5658C8.25018 34.5839 7.59814 41.206 8.8691 47.5947C10.1401 53.9834 13.2769 59.8518 17.8831 64.4577C22.4892 69.0637 28.3577 72.2003 34.7464 73.471C41.1352 74.7417 47.7573 74.0894 53.7753 71.5966C59.7934 69.1038 64.9371 64.8824 68.556 59.4662C72.1749 54.0501 74.1064 47.6825 74.1064 41.1686C74.098 32.436 70.6251 24.0635 64.4501 17.8888C58.2751 11.714 49.9025 8.24153 41.1699 8.2334ZM41.1699 10.9776C47.2699 10.9851 53.2249 12.8375 58.2528 16.2915C63.2806 19.7456 67.1461 24.6396 69.3415 30.3308L59.0643 33.7583C55.5456 34.9345 51.7138 34.7487 48.3253 33.2378C46.0738 32.2384 43.6379 31.7221 41.1746 31.7221C38.7113 31.7221 36.2754 32.2384 34.0239 33.2378L33.5034 33.4687C30.3995 34.8449 26.9187 35.1199 23.6373 34.2481L12.6393 31.3238C14.6935 25.3897 18.5442 20.2424 23.6568 16.5964C28.7695 12.9504 34.8904 10.9866 41.1699 10.9776ZM10.9789 41.1686C10.9789 40.8896 10.9923 40.612 11.0003 40.3344L11.9532 40.652C18.5445 42.8403 24.3768 46.8592 28.7687 52.2392C33.1605 57.6192 35.9304 64.1381 36.7547 71.0339C29.5945 69.9662 23.055 66.3648 18.3249 60.8843C13.5949 55.4038 10.9883 48.408 10.9789 41.1686ZM41.1699 71.3649C40.6254 71.3649 40.0835 71.3489 39.5456 71.3196C38.7656 63.7904 35.8292 56.6464 31.089 50.7451C26.3487 44.8438 20.0059 40.4359 12.8221 38.0507L11.2085 37.5168C11.3532 36.3169 11.5703 35.1269 11.8585 33.9532L22.9272 36.9055C26.8145 37.9388 30.9381 37.6134 34.6152 35.9832L35.1357 35.7523C37.0368 34.908 39.0938 34.4718 41.1739 34.4718C43.2541 34.4718 45.3111 34.908 47.2122 35.7523C51.2259 37.5396 55.7636 37.7582 59.9306 36.365L70.2078 32.9375C70.6339 34.4371 70.9422 35.9678 71.1301 37.5155L69.5164 38.0494C62.3332 40.4345 55.9909 44.842 51.2509 50.7428C46.5108 56.6436 43.5745 63.787 42.7943 71.3156C42.2564 71.3436 41.7158 71.3649 41.1699 71.3649ZM45.5851 71.0393C46.4089 64.1425 49.1787 57.6227 53.5708 52.2419C57.9629 46.8611 63.7959 42.8417 70.388 40.6534L71.3409 40.3357C71.3489 40.6133 71.3623 40.8896 71.3623 41.1699C71.3523 48.409 68.7455 55.4043 64.0155 60.8845C59.2856 66.3647 52.7464 69.966 45.5865 71.0339L45.5851 71.0393Z" fill="#FF8800"/>
</svg>
