<svg width="27" height="27" viewBox="0 0 27 27" fill="none" xmlns="http://www.w3.org/2000/svg">
<path fill-rule="evenodd" clip-rule="evenodd" d="M23.8835 4.54929C25.0202 4.85543 25.9165 5.75157 26.2225 6.88845C26.791 8.96499 26.7691 13.2934 26.7691 13.2934C26.7691 13.2934 26.7691 17.5998 26.2227 19.6765C25.9165 20.8132 25.0204 21.7096 23.8835 22.0155C21.8068 22.5622 13.5 22.5622 13.5 22.5622C13.5 22.5622 5.21481 22.5622 3.1164 21.9938C1.97952 21.6877 1.08338 20.7913 0.777245 19.6547C0.230774 17.5998 0.230774 13.2716 0.230774 13.2716C0.230774 13.2716 0.230774 8.96499 0.777245 6.88845C1.08318 5.75177 2.00139 4.83356 3.1162 4.52763C5.19295 3.98096 13.4997 3.98096 13.4997 3.98096C13.4997 3.98096 21.8068 3.98096 23.8835 4.54929ZM17.7626 13.2713L10.8549 17.2499V9.29267L17.7626 13.2713Z" fill="white"/>
</svg>
